<?xml version="1.0" encoding="UTF-8"?>
<svg width="335px" height="237px" viewBox="0 0 335 237" version="1.1" xmlns="http://www.w3.org/2000/svg" xmlns:xlink="http://www.w3.org/1999/xlink">
    <!-- Generator: Sketch 48.2 (47327) - http://www.bohemiancoding.com/sketch -->
    <title>banner</title>
    <desc>Created with Sketch.</desc>
    <defs>
        <text id="text-1" font-family="AvenirNext-DemiBoldItalic, Avenir Next" font-size="22" font-style="italic" font-weight="500" line-spacing="22.2000008" letter-spacing="0.12222223">
            <tspan x="55.1257777" y="13.6899605">¡Queremos encontrar, </tspan>
            <tspan x="48.1872221" y="35.8899612">desarrollar e invertir en </tspan>
            <tspan x="48.4756666" y="58.089962">creadores emergentes!</tspan>
            <tspan x="175.5" y="88.6000023"></tspan>
        </text>
        <filter x="-1.0%" y="-3.8%" width="102.0%" height="136.0%" filterUnits="objectBoundingBox" id="filter-2">
            <feOffset dx="0" dy="1" in="SourceAlpha" result="shadowOffsetOuter1"></feOffset>
            <feGaussianBlur stdDeviation="1" in="shadowOffsetOuter1" result="shadowBlurOuter1"></feGaussianBlur>
            <feColorMatrix values="0 0 0 0 0   0 0 0 0 0   0 0 0 0 0  0 0 0 0 0" type="matrix" in="shadowBlurOuter1"></feColorMatrix>
        </filter>
        <polygon id="path-3" points="0.00270189845 0.0168410429 0.00270189845 32.3727905 32.2684145 32.3727905 32.2684145 0.0168410429 0.00270189845 0.0168410429"></polygon>
        <polygon id="path-5" points="0.00270189845 0.0168410429 0.00270189845 32.3727905 32.2684145 32.3727905 32.2684145 0.0168410429 0.00270189845 0.0168410429"></polygon>
    </defs>
    <g id="Spanish-phone" stroke="none" stroke-width="1" fill="none" fill-rule="evenodd" transform="translate(0.000000, -204.000000)">
        <g id="banner" transform="translate(-21.000000, 204.000000)">
            <g id="Group-15" transform="translate(0.000000, 168.000000)" fill="#FFFFFF">
                <g id="¡Queremos-encontrar,">
                    <use fill-opacity="1" filter="url(#filter-2)" xlink:href="#text-1"></use>
                    <use fill-rule="evenodd" xlink:href="#text-1"></use>
                    <use fill-opacity="1" xlink:href="#text-1"></use>
                </g>
            </g>
            <g id="1-m-logo" transform="translate(5.000000, 0.000000)">
                <g id="Group-7" fill="#FFFFFF">
                    <path d="M100.163932,52.1619543 L105.326045,25.2701428 L104.933986,25.2701428 L91.2772556,52.1619543 L80.626313,52.1619543 L76.509691,25.2701428 L76.182975,25.2701428 L72.1970394,52.1619543 L58.0829069,52.1619543 L66.2508077,5.72438714 L85.5270535,5.72438714 L89.5783322,31.1732234 L89.9050483,31.1732234 L101.928198,5.72438714 L123.034054,5.72438714 L114.866153,52.1619543 L100.163932,52.1619543 Z M122.838024,52.1619543 L128.914942,17.6617279 L143.55182,17.6617279 L137.474902,52.1619543 L122.838024,52.1619543 Z M137.082843,15.1037263 C135.950222,15.1037263 134.937412,14.9288219 134.044384,14.579008 C133.151356,14.2291941 132.399916,13.7591387 131.790043,13.1688276 C131.18017,12.5785166 130.700992,11.9007623 130.352493,11.1355443 C130.003994,10.3703264 129.829747,9.5723253 129.829747,8.74151721 C129.829747,7.5608952 130.025775,6.45681154 130.417836,5.42923312 C130.809897,4.40165469 131.376199,3.50526994 132.116759,2.74005197 C132.857319,1.97483399 133.728553,1.37360032 134.730488,0.936332903 C135.732422,0.499065489 136.865026,0.280435061 138.128334,0.280435061 C139.173831,0.280435061 140.143079,0.455339403 141.036107,0.805153334 C141.929135,1.15496727 142.691465,1.62502268 143.323119,2.21533369 C143.954773,2.8056447 144.444842,3.48339903 144.793341,4.248617 C145.14184,5.01383498 145.316087,5.81183604 145.316087,6.64264412 C145.316087,7.82326614 145.120059,8.9273498 144.727998,9.95492822 C144.335937,10.9825066 143.780525,11.8788914 143.061746,12.6441094 C142.342967,13.4093273 141.471733,14.010561 140.448018,14.4478284 C139.424303,14.8850958 138.302589,15.1037263 137.082843,15.1037263 Z M144.662655,52.1619543 L153.353301,2.57607751 L168.316895,2.57607751 L159.626249,52.1619543 L144.662655,52.1619543 Z M166.748658,52.1619543 L175.439305,2.57607751 L190.402899,2.57607751 L181.712253,52.1619543 L166.748658,52.1619543 Z M188.900005,52.1619543 L194.976923,17.6617279 L209.613802,17.6617279 L203.536883,52.1619543 L188.900005,52.1619543 Z M203.144824,15.1037263 C202.012203,15.1037263 200.999393,14.9288219 200.106365,14.579008 C199.213337,14.2291941 198.461898,13.7591387 197.852025,13.1688276 C197.242152,12.5785166 196.762973,11.9007623 196.414474,11.1355443 C196.065975,10.3703264 195.891728,9.5723253 195.891728,8.74151721 C195.891728,7.5608952 196.087756,6.45681154 196.479817,5.42923312 C196.871878,4.40165469 197.438181,3.50526994 198.178741,2.74005197 C198.919301,1.97483399 199.790535,1.37360032 200.792469,0.936332903 C201.794403,0.499065489 202.927007,0.280435061 204.190316,0.280435061 C205.235812,0.280435061 206.20506,0.455339403 207.098088,0.805153334 C207.991116,1.15496727 208.753446,1.62502268 209.3851,2.21533369 C210.016755,2.8056447 210.506824,3.48339903 210.855323,4.248617 C211.203821,5.01383498 211.378068,5.81183604 211.378068,6.64264412 C211.378068,7.82326614 211.182041,8.9273498 210.789979,9.95492822 C210.397918,10.9825066 209.842506,11.8788914 209.123728,12.6441094 C208.404949,13.4093273 207.533715,14.010561 206.509999,14.4478284 C205.486284,14.8850958 204.36457,15.1037263 203.144824,15.1037263 Z M230.392941,53.2113909 C227.7792,53.2113909 225.339745,52.8834452 223.074502,52.2275441 C220.80926,51.571643 218.827202,50.587806 217.12827,49.2760038 C215.429338,47.9642016 214.100707,46.3463364 213.142335,44.4223598 C212.183963,42.4983832 211.704784,40.2902158 211.704784,37.7977916 C211.704784,34.9118267 212.183963,32.1789463 213.142335,29.5990686 C214.100707,27.0191908 215.483791,24.7672974 217.291628,22.8433208 C219.099466,20.9193442 221.321113,19.3998627 223.956635,18.2848308 C226.592158,17.1697989 229.608806,16.6122913 233.006669,16.6122913 C235.663973,16.6122913 238.14699,16.9402369 240.455795,17.5961381 C242.7646,18.2520392 244.768438,19.2358761 246.46737,20.5476784 C248.166302,21.8594806 249.505824,23.4773458 250.485977,25.4013224 C251.46613,27.325299 251.956199,29.5334663 251.956199,32.0258906 C251.956199,34.9118555 251.47702,37.6447359 250.518649,40.2246136 C249.560277,42.8044913 248.166302,45.0563847 246.336683,46.9803614 C244.507064,48.904338 242.252746,50.4238195 239.573662,51.5388514 C236.894577,52.6538833 233.834367,53.2113909 230.392941,53.2113909 Z M237.71138,33.6000454 C237.71138,32.2007897 237.275763,31.0201854 236.404516,30.0581971 C235.533269,29.0962087 234.248199,28.6152218 232.549267,28.6152218 C231.547333,28.6152218 230.643427,28.8229207 229.837524,29.2383248 C229.03162,29.6537288 228.334633,30.2003049 227.746541,30.8780694 C227.158449,31.5558338 226.711942,32.3538349 226.407006,33.2720965 C226.102069,34.190358 225.949603,35.1523319 225.949603,36.158047 C225.949603,37.6010294 226.38522,38.7925653 227.256467,39.7326902 C228.127714,40.6728152 229.391004,41.1428706 231.046373,41.1428706 C232.09187,41.1428706 233.028446,40.9461032 233.856131,40.5525625 C234.683816,40.1590218 235.380803,39.6124458 235.947114,38.9128179 C236.513424,38.21319 236.949041,37.415189 237.253978,36.5187908 C237.558914,35.6223926 237.71138,34.6494872 237.71138,33.6000454 Z M258.686549,24.4174756 C258.860799,23.5866675 259.045936,22.5153784 259.241967,21.2035762 C259.437997,19.891774 259.579573,18.7111696 259.666697,17.6617279 L273.78083,17.6617279 C273.737268,18.317629 273.671925,19.071904 273.5848,19.9245754 C273.497676,20.7772469 273.410552,21.5096588 273.323427,22.1218332 L273.5848,22.1218332 C274.586734,20.7225775 275.991599,19.4982471 277.799437,18.4488053 C279.607275,17.3993635 281.600223,16.8746504 283.77834,16.8746504 C285.695084,16.8746504 287.317757,17.15887 288.646409,17.7273176 C289.975061,18.2957653 291.064104,19.0500403 291.91357,19.9901652 C292.763035,20.9302901 293.372899,22.0125107 293.743179,23.2368595 C294.113459,24.4612083 294.298597,25.7292647 294.298597,27.041067 C294.298597,27.7406948 294.265925,28.4731068 294.200582,29.2383248 C294.135238,30.0035427 294.037224,30.7359547 293.906537,31.4355825 L290.312661,52.1619543 L275.61044,52.1619543 L278.812257,33.8624045 C278.899381,33.4688639 278.953834,33.0643976 278.975615,32.6489935 C278.997396,32.2335895 279.008286,31.8947123 279.008286,31.6323519 C279.008286,30.757817 278.768697,30.0472682 278.289511,29.5006839 C277.810325,28.9540996 277.047995,28.6808116 276.002499,28.6808116 C275.000565,28.6808116 274.11844,29.129004 273.356099,30.0254022 C272.593758,30.9218004 272.060127,32.2226514 271.755191,33.9279943 L268.48803,52.1619543 L253.851152,52.1619543 L258.686549,24.4174756 Z" id="Million"></path>
                    <path d="M84.071495,115.685918 L83.001307,108.43489 L67.6173554,108.43489 L63.6710373,115.685918 L46.4142568,115.685918 L75.5099914,68.1514009 L91.8303575,68.1514009 L100.124314,115.685918 L84.071495,115.685918 Z M80.3258372,84.3319358 L73.5702758,96.551261 L81.7304588,96.551261 L80.3258372,84.3319358 Z M141.393437,108.770586 C141.215071,109.62102 141.02556,110.717615 140.824899,112.060404 C140.624238,113.403194 140.479318,114.611687 140.390135,115.685918 L125.942598,115.685918 C125.98719,115.014524 126.054076,114.242431 126.143258,113.369618 C126.232441,112.496805 126.321623,111.747092 126.410805,111.120456 L126.143258,111.120456 C125.117656,112.552765 123.679606,113.806017 121.829063,114.880249 C119.978521,115.95448 117.938495,116.491588 115.708926,116.491588 C113.746905,116.491588 112.085901,116.200655 110.725863,115.618779 C109.365826,115.036904 108.251058,114.264811 107.381526,113.302479 C106.511994,112.340146 105.887724,111.232361 105.508697,109.979091 C105.12967,108.72582 104.94016,107.42781 104.94016,106.08502 C104.94016,105.368866 104.973603,104.619153 105.04049,103.835859 C105.107377,103.052565 105.207706,102.302852 105.34148,101.586697 L109.020251,80.370726 L124.069769,80.370726 L120.792319,99.1025486 C120.703136,99.5053855 120.647397,99.9194062 120.625102,100.344623 C120.602806,100.76984 120.591658,101.116722 120.591658,101.38528 C120.591658,102.280473 120.836907,103.007806 121.327413,103.567302 C121.817918,104.126798 122.598255,104.406541 123.668449,104.406541 C124.694051,104.406541 125.597013,103.947762 126.377362,103.030189 C127.157711,102.112616 127.703948,100.781036 128.016087,99.0354095 L131.360425,80.370726 L146.343056,80.370726 L141.393437,108.770586 Z M162.596535,116.558727 C160.277783,116.558727 158.237758,116.167086 156.476398,115.383792 C154.715038,114.600498 153.232397,113.526283 152.028429,112.161113 C150.824462,110.795944 149.9215,109.19581 149.319516,107.360664 C148.717532,105.525518 148.416545,103.556123 148.416545,101.452419 C148.416545,98.4535219 148.907043,95.6225161 149.888053,92.9593165 C150.869064,90.2961169 152.229081,87.9798394 153.968145,86.0104146 C155.707209,84.0409897 157.780677,82.4744252 160.188612,81.3106741 C162.596547,80.146923 165.205104,79.5650562 168.014362,79.5650562 C168.861598,79.5650562 169.731117,79.6545742 170.622945,79.8336128 C171.514772,80.0126515 172.361996,80.2700156 173.164641,80.6057131 C173.967286,80.9414105 174.703033,81.3554311 175.371904,81.8477873 C176.040774,82.3401435 176.575863,82.8772514 176.977186,83.4591269 L177.110959,83.4591269 L180.321523,64.9287217 L195.237267,64.9287217 L186.34133,115.685918 L172.897094,115.685918 L173.565961,111.926126 L173.432188,111.926126 C172.406586,113.268916 170.968535,114.376701 169.117993,115.249514 C167.26745,116.122327 165.093653,116.558727 162.596535,116.558727 Z M162.997856,99.3039661 C162.997856,100.736275 163.45491,101.944768 164.369034,102.92948 C165.283157,103.914193 166.609731,104.406541 168.348795,104.406541 C169.374397,104.406541 170.299655,104.205126 171.124595,103.802289 C171.949536,103.399452 172.662987,102.839965 173.264971,102.12381 C173.866955,101.407656 174.335157,100.579615 174.669593,99.6396618 C175.004028,98.699709 175.171243,97.7150114 175.171243,96.6855393 C175.171243,95.2084706 174.714189,93.9887883 173.800065,93.0264556 C172.885942,92.064123 171.581663,91.5829639 169.88719,91.5829639 C168.816997,91.5829639 167.858297,91.7843794 167.01106,92.1872163 C166.163824,92.5900532 165.439225,93.1495405 164.837241,93.865695 C164.235257,94.5818495 163.778203,95.398701 163.466063,96.3162739 C163.153923,97.2338469 162.997856,98.2297343 162.997856,99.3039661 Z M193.631985,115.685918 L199.852453,80.370726 L214.835084,80.370726 L208.614617,115.685918 L193.631985,115.685918 Z M235.837522,91.180129 L234.03158,101.116723 C233.986989,101.385281 233.953546,101.698594 233.93125,102.056671 C233.908954,102.414748 233.897807,102.705682 233.897807,102.92948 C233.897807,103.958952 234.154203,104.641527 234.667004,104.977224 C235.179805,105.312922 235.904404,105.480768 236.840823,105.480768 C237.37592,105.480768 237.911009,105.436009 238.446105,105.346489 C238.981202,105.25697 239.427109,105.167452 239.78384,105.077933 L237.977898,115.417362 C237.39821,115.775439 236.372624,116.066373 234.901108,116.290171 C233.429592,116.513969 232.002689,116.625867 230.620356,116.625867 C229.14884,116.625867 227.699642,116.49159 226.272718,116.223032 C224.845793,115.954474 223.574958,115.484504 222.460173,114.81311 C221.345388,114.141715 220.442426,113.224155 219.75126,112.060404 C219.060093,110.896653 218.714515,109.397227 218.714515,107.562081 C218.714515,107.069725 218.747958,106.510238 218.814845,105.883603 C218.881732,105.256967 218.959766,104.675101 219.048949,104.137985 L221.389985,91.180129 L216.172819,91.180129 L218.045648,80.370726 L222.995267,80.370726 L224.399889,72.3811673 L238.914313,72.3811673 L237.509691,80.370726 L244.265252,80.370726 L242.392423,91.180129 L235.837522,91.180129 Z M242.860631,115.685918 L249.081098,80.370726 L264.063729,80.370726 L257.843262,115.685918 L242.860631,115.685918 Z M285.333715,116.760145 C282.658231,116.760145 280.161151,116.424452 277.842399,115.753058 C275.523647,115.081663 273.494769,114.074586 271.755705,112.731796 C270.016641,111.389006 268.656624,109.732924 267.675614,107.763499 C266.694603,105.794074 266.204105,103.533745 266.204105,100.982445 C266.204105,98.0283075 266.694603,95.2308709 267.675614,92.5900512 C268.656624,89.9492314 270.072379,87.6441437 271.922922,85.6747188 C273.773464,83.7052939 276.047591,82.1499192 278.74537,81.0085479 C281.443149,79.8671767 284.531056,79.2964996 288.009184,79.2964996 C290.729259,79.2964996 293.27093,79.632192 295.634273,80.3035869 C297.997617,80.9749817 300.04879,81.9820589 301.787854,83.3248486 C303.526918,84.6676383 304.898083,86.3237207 305.901389,88.2931456 C306.904695,90.2625705 307.406341,92.5228993 307.406341,95.0741997 C307.406341,98.028337 306.915843,100.825774 305.934832,103.466593 C304.953822,106.107413 303.526919,108.412501 301.654081,110.381926 C299.781242,112.351351 297.473673,113.906725 294.731302,115.048097 C291.988932,116.189468 288.856434,116.760145 285.333715,116.760145 Z M292.82503,96.6855393 C292.82503,95.2532303 292.379123,94.0447377 291.487295,93.0600252 C290.595467,92.0753128 289.280041,91.5829639 287.540977,91.5829639 C286.515375,91.5829639 285.590118,91.7955691 284.765177,92.2207858 C283.940237,92.6460026 283.226785,93.2054899 282.624801,93.8992646 C282.022818,94.5930393 281.565763,95.4098907 281.253623,96.3498435 C280.941483,97.2897963 280.785416,98.274494 280.785416,99.3039661 C280.785416,100.781035 281.231323,102.000717 282.123151,102.96305 C283.014978,103.925382 284.308109,104.406541 286.002582,104.406541 C287.072775,104.406541 288.031476,104.205126 288.878712,103.802289 C289.725948,103.399452 290.4394,102.839965 291.019088,102.12381 C291.598776,101.407656 292.044683,100.590804 292.356823,99.6732314 C292.668963,98.7556584 292.82503,97.759771 292.82503,96.6855393 Z M314.295676,87.2860584 C314.474041,86.4356249 314.663552,85.3390298 314.864213,83.9962401 C315.064874,82.6534504 315.209794,81.4449578 315.298977,80.370726 L329.746514,80.370726 C329.701923,81.0421209 329.635037,81.8142134 329.545854,82.6870267 C329.456671,83.55984 329.36749,84.309553 329.278307,84.9361882 L329.545854,84.9361882 C330.571456,83.5038792 332.009506,82.2506276 333.860049,81.1763958 C335.710592,80.1021641 337.750617,79.5650562 339.980186,79.5650562 C341.942207,79.5650562 343.603212,79.8559896 344.963249,80.4378652 C346.323286,81.0197407 347.438054,81.7918332 348.307586,82.7541658 C349.177118,83.7164984 349.801388,84.8242833 350.180415,86.0775537 C350.559442,87.3308241 350.748952,88.6288347 350.748952,89.9716244 C350.748952,90.6877789 350.715509,91.4374919 350.648622,92.2207858 C350.581735,93.0040798 350.481406,93.7537928 350.347632,94.4699473 L346.668861,115.685918 L331.619343,115.685918 L334.896794,96.9540959 C334.985976,96.5512589 335.041715,96.1372383 335.06401,95.7120216 C335.086306,95.2868049 335.097454,94.9399227 335.097454,94.6713648 C335.097454,93.7761717 334.852205,93.0488381 334.3617,92.4893424 C333.871194,91.9298467 333.090857,91.6501031 332.020663,91.6501031 C330.995062,91.6501031 330.092099,92.1088827 329.31175,93.0264556 C328.531401,93.9440286 327.985165,95.2756084 327.673025,97.021235 L324.328688,115.685918 L309.346056,115.685918 L314.295676,87.2860584 Z" id="Audition"></path>
                    <path d="M0,115.395413 L19.5354319,22.5787667 L5.49886232,22.5787667 L7.23534515,15.7518773 C19.5354319,16.4236723 47.4557861,8.82817602 55.2217621,4.13163994 L31.6345369,115.395413 L0,115.395413 Z" id="1"></path>
                </g>
                <g id="星" transform="translate(208.386038, 68.591331) rotate(2.000000) translate(-208.386038, -68.591331) translate(192.182527, 52.366721)">
                    <mask id="mask-4" fill="white">
                        <use xlink:href="#path-3"></use>
                    </mask>
                    <g id="Clip-2"></g>
                    <path d="M20.3537314,24.2144681 L16.1796611,21.671602 L12.0057475,24.21483 C11.7662135,24.3604468 11.4696316,24.3433926 11.2463395,24.1726015 C11.0228013,24.0008379 10.9153947,23.7024795 10.9728229,23.4170135 L11.9694829,18.4431741 L8.39307306,15.0378031 C8.18814813,14.8419057 8.07156911,14.5388653 8.15624606,14.2617907 C8.24233243,13.9845352 8.51289598,13.7869867 8.78764304,13.7560674 L13.5776291,13.2193117 L15.5414408,8.57680835 C15.6539258,8.31061319 15.9037731,8.1044697 16.1798401,8.1044697 C16.4555492,8.1044697 16.705486,8.31061319 16.8183065,8.57680835 L18.7821183,13.2193117 L23.5720148,13.7560674 C23.8468513,13.7869867 24.0284649,13.9845352 24.1140144,14.2617907 C24.1995638,14.5388653 24.1711741,14.8424486 23.9665848,15.0378031 L20.3897275,18.4431741 L21.3871034,23.4170135 C21.4439947,23.7024795 21.336767,24.0005665 21.1135868,24.1720587 C20.9916609,24.2656307 20.8472962,24.3133328 20.702238,24.3133328 C20.5824375,24.3133328 20.4622566,24.2804684 20.3537314,24.2144681 Z" id="Fill-1" fill="#FFFFFF" mask="url(#mask-4)"></path>
                </g>
                <g id="星" transform="translate(257.723387, 68.591331) rotate(2.000000) translate(-257.723387, -68.591331) translate(241.519876, 52.366721)">
                    <mask id="mask-6" fill="white">
                        <use xlink:href="#path-5"></use>
                    </mask>
                    <g id="Clip-2"></g>
                    <path d="M20.3537314,24.2144681 L16.1796611,21.671602 L12.0057475,24.21483 C11.7662135,24.3604468 11.4696316,24.3433926 11.2463395,24.1726015 C11.0228013,24.0008379 10.9153947,23.7024795 10.9728229,23.4170135 L11.9694829,18.4431741 L8.39307306,15.0378031 C8.18814813,14.8419057 8.07156911,14.5388653 8.15624606,14.2617907 C8.24233243,13.9845352 8.51289598,13.7869867 8.78764304,13.7560674 L13.5776291,13.2193117 L15.5414408,8.57680835 C15.6539258,8.31061319 15.9037731,8.1044697 16.1798401,8.1044697 C16.4555492,8.1044697 16.705486,8.31061319 16.8183065,8.57680835 L18.7821183,13.2193117 L23.5720148,13.7560674 C23.8468513,13.7869867 24.0284649,13.9845352 24.1140144,14.2617907 C24.1995638,14.5388653 24.1711741,14.8424486 23.9665848,15.0378031 L20.3897275,18.4431741 L21.3871034,23.4170135 C21.4439947,23.7024795 21.336767,24.0005665 21.1135868,24.1720587 C20.9916609,24.2656307 20.8472962,24.3133328 20.702238,24.3133328 C20.5824375,24.3133328 20.4622566,24.2804684 20.3537314,24.2144681 Z" id="Fill-1" fill="#FFFFFF" mask="url(#mask-6)"></path>
                </g>
            </g>
        </g>
    </g>
</svg>