<?xml version="1.0" encoding="UTF-8"?>
<svg width="878px" height="538px" viewBox="0 0 878 538" version="1.1" xmlns="http://www.w3.org/2000/svg" xmlns:xlink="http://www.w3.org/1999/xlink">
    <!-- Generator: Sketch 48.2 (47327) - http://www.bohemiancoding.com/sketch -->
    <title>Group 14</title>
    <desc>Created with Sketch.</desc>
    <defs>
        <text id="text-1" font-family="AvenirNext-DemiBoldItalic, Avenir Next" font-size="36" font-style="italic" font-weight="500" line-spacing="40" letter-spacing="0.200000018">
            <tspan x="16.2239995" y="23.6199341">A busca pelos melhores criadores de video continua. </tspan>
            <tspan x="65.2719996" y="63.6199341">Quem serão os vencedores da terceira edicão?</tspan>
            <tspan x="471" y="116"></tspan>
        </text>
        <filter x="-0.7%" y="-3.7%" width="101.5%" height="110.3%" filterUnits="objectBoundingBox" id="filter-2">
            <feOffset dx="0" dy="2" in="SourceAlpha" result="shadowOffsetOuter1"></feOffset>
            <feGaussianBlur stdDeviation="2" in="shadowOffsetOuter1" result="shadowBlurOuter1"></feGaussianBlur>
            <feColorMatrix values="0 0 0 0 0   0 0 0 0 0   0 0 0 0 0  0 0 0 0 0" type="matrix" in="shadowBlurOuter1"></feColorMatrix>
        </filter>
        <polygon id="path-3" points="0.0059195439 0.0368487776 0.0059195439 70.8327724 70.6963269 70.8327724 70.6963269 0.0368487776 0.0059195439 0.0368487776"></polygon>
        <polygon id="path-5" points="0.0059195439 0.0368487776 0.0059195439 70.8327724 70.6963269 70.8327724 70.6963269 0.0368487776 0.0059195439 0.0368487776"></polygon>
    </defs>
    <g id="brazil" stroke="none" stroke-width="1" fill="none" fill-rule="evenodd" transform="translate(-278.000000, -210.000000)">
        <g id="font-page" transform="translate(0.000000, -14.000000)">
            <g id="font-page-font" transform="translate(31.000000, 39.000000)">
                <g id="center" transform="translate(219.000000, 185.000000)">
                    <g id="Group-8-Copy">
                        <g id="Group-14">
                            <text id="18-de-Maio-até-7-de" font-family="DINCondensed-Bold, DIN Condensed" font-size="60" font-style="condensed" font-weight="bold" letter-spacing="0.333333373" fill="#FFFFFF">
                                <tspan x="214.133333" y="537">18 de Maio até 7 de Junho</tspan>
                            </text>
                            <g id="Group-15" transform="translate(0.000000, 351.000000)" fill="#FFFFFF">
                                <g id="A-busca-pelos-melhor">
                                    <use fill-opacity="1" filter="url(#filter-2)" xlink:href="#text-1"></use>
                                    <use fill-rule="evenodd" xlink:href="#text-1"></use>
                                    <use fill-opacity="1" xlink:href="#text-1"></use>
                                </g>
                            </g>
                            <g id="1-m-logo" transform="translate(87.000000, 0.000000)">
                                <g id="Group-7" fill="#FFFFFF">
                                    <path d="M219.447474,114.132139 L230.757061,55.2919364 L229.898105,55.2919364 L199.977805,114.132139 L176.642834,114.132139 L167.623796,55.2919364 L166.907999,55.2919364 L158.17528,114.132139 L127.252864,114.132139 L145.147781,12.5251548 L187.379784,12.5251548 L196.255662,68.2080785 L196.971459,68.2080785 L223.312776,12.5251548 L269.55324,12.5251548 L251.658324,114.132139 L219.447474,114.132139 Z M269.123762,114.132139 L282.43758,38.6444644 L314.50527,38.6444644 L301.191452,114.132139 L269.123762,114.132139 Z M300.332496,33.0474695 C297.851056,33.0474695 295.632108,32.6647728 293.675588,31.8993679 C291.719067,31.1339631 290.072751,30.1054658 288.736591,28.8138451 C287.40043,27.5222244 286.350606,26.0392748 285.587085,24.3649517 C284.823565,22.6906286 284.441811,20.944575 284.441811,19.1267385 C284.441811,16.5434972 284.871284,14.1277244 285.730245,11.8793477 C286.589205,9.63097095 287.829907,7.66965047 289.452387,5.99532738 C291.074868,4.32100429 292.98364,3.00548445 295.178761,2.0487284 C297.373881,1.09197235 299.855285,0.613601502 302.623046,0.613601502 C304.913607,0.613601502 307.037115,0.996298181 308.993636,1.76170302 C310.950157,2.52710786 312.620332,3.55560519 314.004213,4.84722586 C315.388093,6.13884653 316.461777,7.62179616 317.225298,9.29611925 C317.988818,10.9704423 318.370572,12.7164959 318.370572,14.5343324 C318.370572,17.1175738 317.941099,19.5333466 317.082138,21.7817233 C316.223178,24.0301 315.006336,25.9914205 313.431575,27.6657436 C311.856815,29.3400667 309.948043,30.6555865 307.705202,31.6123426 C305.462361,32.5690986 303.004817,33.0474695 300.332496,33.0474695 Z M316.938979,114.132139 L335.97917,5.63654565 L368.762657,5.63654565 L349.722466,114.132139 L316.938979,114.132139 Z M365.326833,114.132139 L384.367024,5.63654565 L417.150511,5.63654565 L398.11032,114.132139 L365.326833,114.132139 Z M413.857846,114.132139 L427.171664,38.6444644 L459.239355,38.6444644 L445.925537,114.132139 L413.857846,114.132139 Z M445.066581,33.0474695 C442.58514,33.0474695 440.366192,32.6647728 438.409672,31.8993679 C436.453151,31.1339631 434.806835,30.1054658 433.470675,28.8138451 C432.134514,27.5222244 431.08469,26.0392748 430.32117,24.3649517 C429.557649,22.6906286 429.175895,20.944575 429.175895,19.1267385 C429.175895,16.5434972 429.605369,14.1277244 430.464329,11.8793477 C431.323289,9.63097095 432.563991,7.66965047 434.186472,5.99532738 C435.808952,4.32100429 437.717724,3.00548445 439.912845,2.0487284 C442.107966,1.09197235 444.589369,0.613601502 447.35713,0.613601502 C449.647691,0.613601502 451.7712,0.996298181 453.72772,1.76170302 C455.684241,2.52710786 457.354416,3.55560519 458.738297,4.84722586 C460.122177,6.13884653 461.195862,7.62179616 461.959382,9.29611925 C462.722902,10.9704423 463.104657,12.7164959 463.104657,14.5343324 C463.104657,17.1175738 462.675183,19.5333466 461.816223,21.7817233 C460.957262,24.0301 459.74042,25.9914205 458.16566,27.6657436 C456.590899,29.3400667 454.682127,30.6555865 452.439286,31.6123426 C450.196446,32.5690986 447.738902,33.0474695 445.066581,33.0474695 Z M504.764022,116.428342 C499.03762,116.428342 493.693059,115.710786 488.730177,114.275652 C483.767295,112.840518 479.424839,110.687849 475.702678,107.817581 C471.980516,104.947313 469.069639,101.407369 466.969958,97.1976419 C464.870278,92.9879153 463.820453,88.1563697 463.820453,82.7028602 C463.820453,76.3882703 464.870278,70.4086347 466.969958,64.763774 C469.069639,59.1189133 472.099815,54.1916935 476.060576,49.9819669 C480.021337,45.7722403 484.888706,42.4475629 490.662828,40.0078349 C496.43695,37.568107 503.046073,36.3482613 510.490395,36.3482613 C516.312237,36.3482613 521.752237,37.0658176 526.810559,38.5009517 C531.868881,39.9360858 536.259056,42.0887546 539.981218,44.9590227 C543.703379,47.8292909 546.638116,51.3692352 548.785517,55.5789618 C550.932917,59.7886884 552.006601,64.620234 552.006601,70.0737435 C552.006601,76.3883334 550.956777,82.367969 548.857096,88.0128297 C546.757415,93.6576904 543.70338,98.5849102 539.694899,102.794637 C535.686418,107.004363 530.74747,110.329041 524.877908,112.768769 C519.008346,115.208497 512.303785,116.428342 504.764022,116.428342 Z M520.797867,73.518048 C520.797867,70.4564287 519.843481,67.8732261 517.934681,65.7683628 C516.02588,63.6634995 513.210441,62.6110836 509.48828,62.6110836 C507.293159,62.6110836 505.312808,63.0655359 503.547168,63.9744542 C501.781527,64.8833724 500.25451,66.0792995 498.966069,67.5622714 C497.677629,69.0452433 496.699383,70.7912969 496.031303,72.8004846 C495.363223,74.8096723 495.029187,76.914504 495.029187,79.115043 C495.029187,82.2723379 495.983573,84.8794591 497.892374,86.9364846 C499.801175,88.9935101 502.568894,90.0220074 506.195615,90.0220074 C508.486176,90.0220074 510.538106,89.5914736 512.351467,88.7303932 C514.164827,87.8693127 515.691845,86.6733856 516.932565,85.1425759 C518.173286,83.6117663 519.127672,81.8657127 519.795752,79.9043628 C520.463832,77.9430129 520.797867,75.8142626 520.797867,73.518048 Z M566.752013,53.4262714 C567.133773,51.6084349 567.539387,49.2644178 567.968867,46.3941496 C568.398347,43.5238815 568.708523,40.9406789 568.899403,38.6444644 L599.821818,38.6444644 C599.726378,40.0795984 599.58322,41.7299779 599.39234,43.5956522 C599.20146,45.4613265 599.010583,47.0638688 598.819703,48.4033273 L599.39234,48.4033273 C601.587461,45.3417079 604.665356,42.6628312 608.626117,40.3666166 C612.586878,38.0704021 616.953194,36.9223121 621.725196,36.9223121 C625.924557,36.9223121 629.479645,37.5441942 632.390566,38.7879771 C635.301487,40.0317599 637.687452,41.6821394 639.548533,43.7391649 C641.409613,45.7961904 642.745754,48.1641261 643.556994,50.843043 C644.368234,53.52196 644.773848,56.2965109 644.773848,59.166779 C644.773848,60.6975887 644.702269,62.3001311 644.559109,63.9744542 C644.415949,65.6487772 644.201212,67.2513196 643.914892,68.7821293 L636.041129,114.132139 L603.83028,114.132139 L610.845087,74.0920988 C611.035967,73.2310184 611.155265,72.3460323 611.202985,71.437114 C611.250705,70.5281958 611.274565,69.786721 611.274565,69.2126673 C611.274565,67.2991552 610.749652,65.74445 609.699812,64.5485049 C608.649972,63.3525599 606.979796,62.7545963 604.689236,62.7545963 C602.494115,62.7545963 600.561483,63.7352565 598.891283,65.6966064 C597.221082,67.6579563 596.051959,70.5042629 595.383879,74.2356115 L588.225912,114.132139 L556.158222,114.132139 L566.752013,53.4262714 Z" id="Million"></path>
                                    <path d="M184.190825,253.124745 L181.846168,237.259247 L148.141727,237.259247 L139.495805,253.124745 L101.688215,253.124745 L165.433571,149.117595 L201.189587,149.117595 L219.360677,253.124745 L184.190825,253.124745 Z M175.984526,184.521159 L161.183881,211.25746 L179.061888,211.25746 L175.984526,184.521159 Z M309.776503,237.993761 C309.385725,239.854539 308.97053,242.253926 308.530904,245.191996 C308.091279,248.130066 307.773777,250.774289 307.578388,253.124745 L275.925521,253.124745 C276.023216,251.65571 276.169755,249.966345 276.365144,248.0566 C276.560533,246.146854 276.75592,244.506457 276.951309,243.135357 L276.365144,243.135357 C274.11817,246.269298 270.967569,249.011456 266.913247,251.361912 C262.858924,253.712367 258.389467,254.887578 253.504741,254.887578 C249.206182,254.887578 245.567116,254.251005 242.587433,252.977842 C239.60775,251.704678 237.165424,250.015314 235.26038,247.909697 C233.355337,245.80408 231.987634,243.380209 231.157231,240.638011 C230.326828,237.895812 229.911632,235.055721 229.911632,232.117651 C229.911632,230.55068 229.984902,228.910283 230.131444,227.196409 C230.277985,225.482535 230.497795,223.842137 230.790878,222.275166 L238.850636,175.853896 L271.822372,175.853896 L264.641861,216.839765 C264.446472,217.721185 264.324355,218.627077 264.275508,219.557465 C264.226661,220.487854 264.202237,221.246844 264.202237,221.834458 C264.202237,223.793171 264.739549,225.384602 265.814189,226.608798 C266.888829,227.832993 268.598457,228.445082 270.943126,228.445082 C273.1901,228.445082 275.168384,227.441257 276.878038,225.433576 C278.587692,223.425895 279.784432,220.512352 280.468294,216.692862 L287.795346,175.853896 L320.620541,175.853896 L309.776503,237.993761 Z M356.230016,255.03448 C351.149901,255.03448 346.680443,254.177556 342.82151,252.463682 C338.962576,250.749808 335.714282,248.399388 333.07653,245.41235 C330.438778,242.425313 328.460494,238.924165 327.141618,234.908803 C325.822742,230.893441 325.163313,226.584337 325.163313,221.981361 C325.163313,215.419672 326.237937,209.225334 328.387216,203.398163 C330.536496,197.570991 333.516134,192.502897 337.32622,188.193728 C341.136307,183.884559 345.679034,180.456862 350.954538,177.910535 C356.230042,175.364208 361.945086,174.091063 368.099841,174.091063 C369.956036,174.091063 371.861051,174.286932 373.814941,174.678674 C375.768832,175.070417 377.625,175.633538 379.383501,176.368056 C381.142003,177.102573 382.753938,178.008465 384.219356,179.085757 C385.684774,180.163049 386.85709,181.338259 387.736341,182.611423 L388.029423,182.611423 L395.063393,142.066263 L427.742047,142.066263 L408.252088,253.124745 L378.797337,253.124745 L380.262748,244.89819 L379.969665,244.89819 C377.722691,247.83626 374.57209,250.260131 370.517768,252.169877 C366.463445,254.079622 361.700909,255.03448 356.230016,255.03448 Z M357.109262,217.280473 C357.109262,220.414414 358.110616,223.058637 360.113353,225.213221 C362.116091,227.367806 365.022459,228.445082 368.832546,228.445082 C371.07952,228.445082 373.106651,228.004378 374.913999,227.122957 C376.721348,226.241536 378.284437,225.017359 379.603313,223.450388 C380.922189,221.883418 381.947966,220.071635 382.680675,218.014987 C383.413384,215.958338 383.779733,213.803786 383.779733,211.551265 C383.779733,208.319389 382.778379,205.650682 380.775641,203.545065 C378.772904,201.439449 375.915382,200.386656 372.20299,200.386656 C369.858321,200.386656 367.757921,200.82736 365.901725,201.708781 C364.045529,202.590202 362.458017,203.814379 361.139141,205.38135 C359.820265,206.94832 358.818911,208.735619 358.135049,210.7433 C357.451188,212.750981 357.109262,214.930017 357.109262,217.280473 Z M424.225062,253.124745 L437.853379,175.853896 L470.678574,175.853896 L457.050257,253.124745 L424.225062,253.124745 Z M516.692463,199.50524 L512.735855,221.246847 C512.638161,221.834461 512.564891,222.52 512.516043,223.303486 C512.467196,224.086971 512.442773,224.723543 512.442773,225.213221 C512.442773,227.465742 513.004508,228.959238 514.127995,229.693755 C515.251482,230.428273 516.838994,230.795526 518.890579,230.795526 C520.062913,230.795526 521.23523,230.697592 522.407564,230.501721 C523.579898,230.305849 524.556829,230.109981 525.338385,229.91411 L521.381777,252.537134 C520.111748,253.320619 517.864808,253.957191 514.640889,254.446869 C511.416969,254.936548 508.290792,255.181383 505.262262,255.181383 C502.038342,255.181383 498.863318,254.887581 495.737093,254.299967 C492.610869,253.712353 489.826617,252.684044 487.384254,251.215009 C484.941891,249.745974 482.963606,247.738323 481.449341,245.191996 C479.935076,242.645669 479.177955,239.364873 479.177955,235.349511 C479.177955,234.272219 479.251225,233.048042 479.397767,231.676943 C479.544308,230.305843 479.715271,229.032699 479.91066,227.857471 L485.039597,199.50524 L473.609395,199.50524 L477.712545,175.853896 L488.556582,175.853896 L491.633944,158.372469 L523.433352,158.372469 L520.35599,175.853896 L535.156635,175.853896 L531.053486,199.50524 L516.692463,199.50524 Z M532.079273,253.124745 L545.707591,175.853896 L578.532786,175.853896 L564.904468,253.124745 L532.079273,253.124745 Z M625.132839,255.475189 C619.271168,255.475189 613.800357,254.740682 608.720242,253.271647 C603.640127,251.802613 599.195092,249.599093 595.385006,246.661024 C591.57492,243.722954 588.595282,240.099389 586.446002,235.79022 C584.296723,231.481051 583.222099,226.535374 583.222099,220.953042 C583.222099,214.489288 584.296723,208.368401 586.446002,202.590197 C588.595282,196.811994 591.697036,191.768383 595.751359,187.459214 C599.805681,183.150045 604.788027,179.746832 610.698546,177.249472 C616.609064,174.752113 623.374308,173.503452 630.994481,173.503452 C636.953847,173.503452 642.522351,174.237959 647.70016,175.706994 C652.87797,177.176028 657.371851,179.379548 661.181937,182.317617 C664.992023,185.255687 667.996085,188.879252 670.194211,193.188421 C672.392338,197.49759 673.491385,202.443267 673.491385,208.025599 C673.491385,214.489353 672.416761,220.61024 670.267482,226.388444 C668.118202,232.166647 664.992025,237.210258 660.888855,241.519427 C656.785685,245.828596 651.730069,249.231809 645.721856,251.729169 C639.713643,254.226528 632.850706,255.475189 625.132839,255.475189 Z M641.545436,211.551265 C641.545436,208.417324 640.568506,205.773101 638.614615,203.618517 C636.660725,201.463932 633.77878,200.386656 629.968694,200.386656 C627.72172,200.386656 625.694589,200.851844 623.88724,201.782232 C622.079891,202.712621 620.516803,203.936798 619.197927,205.454801 C617.87905,206.972804 616.877697,208.760103 616.193835,210.816752 C615.509973,212.8734 615.168048,215.027953 615.168048,217.280473 C615.168048,220.51235 616.144978,223.181056 618.098869,225.286673 C620.052759,227.39229 622.885858,228.445082 626.598249,228.445082 C628.942918,228.445082 631.043319,228.004378 632.899515,227.122957 C634.75571,226.241536 636.318799,225.017359 637.588828,223.450388 C638.858857,221.883418 639.835787,220.096119 640.519649,218.088438 C641.203511,216.080757 641.545436,213.901721 641.545436,211.551265 Z M688.585113,190.98488 C688.975891,189.124102 689.391086,186.724715 689.830712,183.786645 C690.270337,180.848575 690.587839,178.204352 690.783229,175.853896 L722.436095,175.853896 C722.3384,177.322931 722.191861,179.012296 721.996472,180.922041 C721.801083,182.831787 721.605697,184.472184 721.410308,185.843284 L721.996472,185.843284 C724.243446,182.709342 727.394047,179.967185 731.448369,177.616729 C735.502692,175.266274 739.972149,174.091063 744.856875,174.091063 C749.155434,174.091063 752.794501,174.727635 755.774183,176.000799 C758.753866,177.273963 761.196193,178.963327 763.101236,181.068944 C765.006279,183.174561 766.373982,185.598432 767.204385,188.34063 C768.034789,191.082829 768.449984,193.92292 768.449984,196.86099 C768.449984,198.427961 768.376714,200.068358 768.230172,201.782232 C768.083631,203.496106 767.863821,205.136504 767.570738,206.703475 L759.51098,253.124745 L726.539244,253.124745 L733.719756,212.138876 C733.915145,211.257455 734.037261,210.351564 734.086108,209.421175 C734.134956,208.490787 734.159379,207.731797 734.159379,207.144183 C734.159379,205.18547 733.622067,203.594039 732.547427,202.369843 C731.472788,201.145648 729.763159,200.533559 727.418491,200.533559 C725.171517,200.533559 723.193232,201.537384 721.483578,203.545065 C719.773924,205.552746 718.577184,208.466288 717.893322,212.285779 L710.56627,253.124745 L677.741075,253.124745 L688.585113,190.98488 Z" id="Audition"></path>
                                    <path d="M0,252.489108 L42.7998494,49.4031135 L12.047365,49.4031135 L15.8517961,34.465646 C42.7998494,35.9355564 103.970084,19.316351 120.98443,9.04016945 L69.3075751,252.489108 L0,252.489108 Z" id="1"></path>
                                </g>
                                <g id="星" transform="translate(456.549468, 150.080177) rotate(2.000000) translate(-456.549468, -150.080177) translate(421.049468, 114.580177)">
                                    <mask id="mask-4" fill="white">
                                        <use xlink:href="#path-3"></use>
                                    </mask>
                                    <g id="Clip-2"></g>
                                    <path d="M44.592648,52.982084 L35.4477476,47.418206 L26.3031903,52.9828758 C25.7783993,53.3014904 25.1286231,53.2641752 24.6394162,52.8904786 C24.1496701,52.5146539 23.9143548,51.8618354 24.0401733,51.2372261 L26.2237389,40.3542956 L18.3882427,32.9032273 C17.9392761,32.4745972 17.6838651,31.8115343 17.8693824,31.2052857 C18.0579876,30.5986411 18.6507607,30.1663982 19.2526994,30.0987458 L29.7469993,28.924306 L34.0494814,18.7663499 C34.2959229,18.1839058 34.8433092,17.7328568 35.4481397,17.7328568 C36.052186,17.7328568 36.5997684,18.1839058 36.8469451,18.7663499 L41.1494272,28.924306 L51.643531,30.0987458 C52.2456658,30.1663982 52.64356,30.5986411 52.8309888,31.2052857 C53.0184176,31.8115343 52.9562191,32.4757849 52.5079877,32.9032273 L44.6715112,40.3542956 L46.8566453,51.2372261 C46.9812875,51.8618354 46.7463642,52.51406 46.2574024,52.8892908 C45.9902771,53.0940297 45.6739909,53.1984034 45.3561853,53.1984034 C45.0937163,53.1984034 44.830414,53.1264949 44.592648,52.982084 Z" id="Fill-1" fill="#FFFFFF" mask="url(#mask-4)"></path>
                                </g>
                                <g id="星" transform="translate(564.641837, 150.080177) rotate(2.000000) translate(-564.641837, -150.080177) translate(529.141837, 114.580177)">
                                    <mask id="mask-6" fill="white">
                                        <use xlink:href="#path-5"></use>
                                    </mask>
                                    <g id="Clip-2"></g>
                                    <path d="M44.592648,52.982084 L35.4477476,47.418206 L26.3031903,52.9828758 C25.7783993,53.3014904 25.1286231,53.2641752 24.6394162,52.8904786 C24.1496701,52.5146539 23.9143548,51.8618354 24.0401733,51.2372261 L26.2237389,40.3542956 L18.3882427,32.9032273 C17.9392761,32.4745972 17.6838651,31.8115343 17.8693824,31.2052857 C18.0579876,30.5986411 18.6507607,30.1663982 19.2526994,30.0987458 L29.7469993,28.924306 L34.0494814,18.7663499 C34.2959229,18.1839058 34.8433092,17.7328568 35.4481397,17.7328568 C36.052186,17.7328568 36.5997684,18.1839058 36.8469451,18.7663499 L41.1494272,28.924306 L51.643531,30.0987458 C52.2456658,30.1663982 52.64356,30.5986411 52.8309888,31.2052857 C53.0184176,31.8115343 52.9562191,32.4757849 52.5079877,32.9032273 L44.6715112,40.3542956 L46.8566453,51.2372261 C46.9812875,51.8618354 46.7463642,52.51406 46.2574024,52.8892908 C45.9902771,53.0940297 45.6739909,53.1984034 45.3561853,53.1984034 C45.0937163,53.1984034 44.830414,53.1264949 44.592648,52.982084 Z" id="Fill-1" fill="#FFFFFF" mask="url(#mask-6)"></path>
                                </g>
                                <text id="--Brasil--" font-family="AvenirNext-BoldItalic, Avenir Next" font-size="60" font-style="italic" font-weight="bold" fill="#FFFFFF">
                                    <tspan x="269.65" y="321">- Brasil -</tspan>
                                </text>
                            </g>
                        </g>
                    </g>
                </g>
            </g>
        </g>
    </g>
</svg>