<?xml version="1.0" encoding="UTF-8"?>
<svg width="176px" height="176px" viewBox="0 0 176 176" version="1.1" xmlns="http://www.w3.org/2000/svg" xmlns:xlink="http://www.w3.org/1999/xlink">
    <!-- Generator: Sketch 48.2 (47327) - http://www.bohemiancoding.com/sketch -->
    <title>Group 11</title>
    <desc>Created with Sketch.</desc>
    <defs>
        <linearGradient x1="108.027596%" y1="-8.56775045%" x2="39.3056837%" y2="58.6356969%" id="linearGradient-1">
            <stop stop-color="#FFFFFF" stop-opacity="0.669270833" offset="0%"></stop>
            <stop stop-color="#FFFFFF" offset="100%"></stop>
        </linearGradient>
    </defs>
    <g id="Spanish" stroke="none" stroke-width="1" fill="none" fill-rule="evenodd" transform="translate(-877.000000, -1390.000000)">
        <g id="catagory" transform="translate(142.000000, 1390.000000)">
            <g id="talent" transform="translate(735.000000, 0.000000)">
                <g id="special-skills">
                    <g id="Group-11">
                        <circle id="Oval" fill-opacity="0.819999993" fill="url(#linearGradient-1)" opacity="0.8203125" cx="88" cy="88" r="88"></circle>
                        <g id="animal" transform="translate(16.000000, 16.000000)" fill-rule="nonzero">
                            <circle id="Oval-6-Copy" fill="#21D3FF" cx="72" cy="72" r="72"></circle>
                            <g id="Group-26" transform="translate(28.800000, 33.600000)">
                                <path d="M42.6180933,23.7818969 C54.1714847,2.35462902 62.9704707,-4.59331208 69.0150512,2.93807359 C75.7397131,11.3168224 80.9981239,27.4033427 84.7902837,51.1976343 C85.0042364,52.5401021 85.1117151,53.8973844 85.1117151,55.2567944 C85.1117151,69.5007944 73.5646716,81.0478379 59.3206716,81.0478379 L42.6180931,81.0478392 L25.915515,81.0478379 C11.6715151,81.0478379 0.124471619,69.5007944 0.124471619,55.2567944 C0.124471619,53.8973844 0.231950273,52.5401021 0.445902955,51.1976343 C4.23806279,27.4033427 9.49647363,11.3168224 16.2211355,2.93807359 C22.265716,-4.59331208 31.064702,2.35462902 42.6180933,23.7818969 Z" id="Combined-Shape" fill="#FFE0CC"></path>
                                <rect id="Rectangle-2" fill="#FFE0CC" x="24" y="16.49049" width="38.4" height="12.30951"></rect>
                                <rect id="Rectangle-18" fill="#FFFFFF" x="24.5014925" y="50.62887" width="36.1074627" height="22.124932" rx="11.062466"></rect>
                                <path d="M44.9590433,54.8061031 L48.0521706,57.2320314 C49.0975599,58.0519264 49.2803592,59.5640381 48.4604642,60.6094274 C48.0044562,61.1908505 47.3065348,61.5304435 46.5676194,61.5304435 L38.5755278,61.5304435 C37.2469697,61.5304435 36.1699605,60.4534343 36.1699605,59.1248762 C36.1699605,58.3859608 36.5095535,57.6880394 37.0909766,57.2320314 L40.1841038,54.8061031 C41.5858958,53.7066828 43.5572513,53.7066828 44.9590433,54.8061031 Z" id="Triangle-2" fill="#666666" transform="translate(42.571625, 57.755991) scale(-1, 1) rotate(-180.000000) translate(-42.571625, -57.755991) "></path>
                                <ellipse id="Oval-12" fill="#666666" cx="25.7910448" cy="43.9384615" rx="5.15820896" ry="5.02153846"></ellipse>
                                <ellipse id="Oval-12-Copy" fill="#666666" cx="59.319403" cy="43.9384615" rx="5.15820896" ry="5.02153846"></ellipse>
                            </g>
                        </g>
                    </g>
                </g>
            </g>
        </g>
    </g>
</svg>