<?xml version="1.0" encoding="UTF-8"?>
<svg width="176px" height="176px" viewBox="0 0 176 176" version="1.1" xmlns="http://www.w3.org/2000/svg" xmlns:xlink="http://www.w3.org/1999/xlink">
    <!-- Generator: Sketch 48.2 (47327) - http://www.bohemiancoding.com/sketch -->
    <title>comedy</title>
    <desc>Created with Sketch.</desc>
    <defs>
        <linearGradient x1="108.027596%" y1="-8.56775045%" x2="39.3056837%" y2="58.6356969%" id="linearGradient-1">
            <stop stop-color="#FFFFFF" stop-opacity="0.669270833" offset="0%"></stop>
            <stop stop-color="#FFFFFF" offset="100%"></stop>
        </linearGradient>
    </defs>
    <g id="Spanish" stroke="none" stroke-width="1" fill="none" fill-rule="evenodd" transform="translate(-387.000000, -1390.000000)">
        <g id="catagory" transform="translate(142.000000, 1390.000000)">
            <g id="fitness" transform="translate(245.000000, 0.000000)">
                <g id="Group-6">
                    <g id="comedy">
                        <circle id="Oval" fill-opacity="0.819999993" fill="url(#linearGradient-1)" opacity="0.8203125" cx="88" cy="88" r="88"></circle>
                        <circle id="Oval-6-Copy" fill="#C4E677" cx="88.5" cy="88.5" r="77.5"></circle>
                        <g id="Group-5" transform="translate(14.000000, 14.000000)">
                            <circle id="Oval-6-Copy" fill="#C4E677" cx="74" cy="74" r="74"></circle>
                            <g id="Group-4-Copy-3">
                                <circle id="Oval-5" fill="#DF6B23" cx="74" cy="74" r="48.2608696"></circle>
                                <path d="M58.4103898,61.9627234 L70.6417275,74.1940611 L38.3314584,106.50433 C30.3861769,97.6676466 26.2873559,86.5841416 26.0126087,75.4212652 C38.1014849,74.80054 49.4739832,70.0769236 58.4103898,61.9627234 Z M38.3558804,41.908214 L54.747094,58.2994276 C46.8262344,65.4143621 36.8111907,69.6006951 26.1571054,70.2397367 C26.9955931,60.0191414 31.0537108,50.0163087 38.3558804,41.908214 Z M74.2948475,70.5389059 L62.0594395,58.3055331 C70.1573584,49.3670913 74.8667287,38.0027336 75.4711725,25.9321739 C87.0655037,26.2130266 97.9739846,30.5438563 106.560343,38.2734105 L74.2948475,70.5389059 Z M70.2916792,26.0766706 C69.6668838,36.7144746 65.496832,46.7193425 58.3981788,54.6422373 L42.0130707,38.2571292 C49.9034029,31.1625463 59.7535983,26.9314396 70.2916792,26.0766706 Z M74.2948475,77.8492162 L86.1395039,89.6918375 C77.941862,98.7238968 73.2039994,110.253103 72.6687512,122.500722 C61.2250221,122.128287 50.4691786,117.801527 41.9845784,110.159485 L74.2948475,77.8492162 Z M89.7946591,86.0407527 L77.9500026,74.1940611 L110.215498,41.9285656 C118.071232,50.6594206 122.172089,61.5882531 122.534348,72.6188439 C110.321327,73.1479866 98.8165426,77.8695679 89.7946591,86.0407527 Z M110.241955,106.486014 L93.4579549,89.7020133 C101.476502,82.5219535 111.634008,78.3396908 122.428519,77.7963019 C121.667368,88.1390071 117.61332,98.280231 110.241955,106.486014 Z M77.8462093,122.394893 C78.3936685,111.567819 82.5922125,101.381821 89.7987294,93.3530982 L106.588835,110.143204 C98.586569,117.357862 88.5633847,121.61746 77.8462093,122.394893 Z" id="Combined-Shape" fill="#FE9263"></path>
                            </g>
                        </g>
                    </g>
                </g>
            </g>
        </g>
    </g>
</svg>