<?xml version="1.0" encoding="UTF-8"?>
<svg width="176px" height="176px" viewBox="0 0 176 176" version="1.1" xmlns="http://www.w3.org/2000/svg" xmlns:xlink="http://www.w3.org/1999/xlink">
    <!-- Generator: Sketch 48.2 (47327) - http://www.bohemiancoding.com/sketch -->
    <title>Group 14</title>
    <desc>Created with Sketch.</desc>
    <defs>
        <linearGradient x1="108.027596%" y1="-8.56775045%" x2="39.3056837%" y2="58.6356969%" id="linearGradient-1">
            <stop stop-color="#FFFFFF" stop-opacity="0.669270833" offset="0%"></stop>
            <stop stop-color="#FFFFFF" offset="100%"></stop>
        </linearGradient>
        <circle id="path-2" cx="88.5" cy="88.5" r="77.5"></circle>
        <polygon id="path-4" points="0.00666666667 0.0743540541 60.9462344 0.0743540541 60.9462344 81.9371703 0.00666666667 81.9371703"></polygon>
    </defs>
    <g id="Spanish" stroke="none" stroke-width="1" fill="none" fill-rule="evenodd" transform="translate(-1122.000000, -1390.000000)">
        <g id="catagory" transform="translate(142.000000, 1390.000000)">
            <g id="creative" transform="translate(980.000000, 0.000000)">
                <g id="Group-14">
                    <g id="creative-duet-copy">
                        <circle id="Oval" fill-opacity="0.819999993" fill="url(#linearGradient-1)" opacity="0.8203125" cx="88" cy="88" r="88"></circle>
                        <mask id="mask-3" fill="white">
                            <use xlink:href="#path-2"></use>
                        </mask>
                        <use id="Mask" fill="#FF6DB7" xlink:href="#path-2"></use>
                    </g>
                    <g id="灵感-3" transform="translate(57.000000, 45.000000)">
                        <path d="M25,87 C25,89.2093334 27.9102264,91 31.4999455,91 C35.0896645,91 38,89.2093334 38,87 C38,84.7906666 35.0896645,83 31.4999455,83 C27.9102264,83 25,84.7906666 25,87 Z" id="Fill-1" fill="#C7C7D3"></path>
                        <path d="M23,84.5 C23,86.9853139 26.5815512,89 31,89 C35.4184488,89 39,86.9853139 39,84.5 C39,82.0146861 35.4184488,80 31,80 C26.5815512,80 23,82.0146861 23,84.5 Z" id="Fill-2" fill="#DFDFEA"></path>
                        <path d="M41.1933188,66.2635001 C36.1146198,63.2455 27.8802059,63.2455 22.8058963,66.2635001 C18.4195887,68.8649676 17.8264642,72.8603362 21.0174065,75.8420314 L23.7725655,83.6661326 C23.5651407,85.0601481 24.36569,86.4983709 26.1585692,87.5649554 C29.3855267,89.4783482 34.6109873,89.4783482 37.8450353,87.5649554 C39.7728587,86.4227834 40.5469594,84.8489614 40.1733022,83.3730595 L42.7517618,76.0532181 C46.1980741,73.0518243 45.6850833,68.9266974 41.1933188,66.2635001 Z" id="Fill-3" fill="#E8E8ED"></path>
                        <path d="M19,73.5 C19,77.6423314 24.8204304,81 32.0001688,81 C39.1800196,81 45,77.6423314 45,73.5 C45,69.3580059 39.1800196,66 32.0001688,66 C24.8204304,66 19,69.3580059 19,73.5 Z" id="Fill-4" fill="#DFDFEA"></path>
                        <path d="M32.3886895,82 C28.9805964,82 25.5730657,81.3635162 22.9872784,80.0900703 C22.7132139,79.9559226 22.4452223,79.812398 22.1843157,79.6602619 C21.9905475,79.5469732 21.94174,79.3212568 22.0753422,79.1567776 C22.2084945,78.9919157 22.4737871,78.9504849 22.6671054,79.0640607 C22.9091188,79.2042364 23.155968,79.3373316 23.4082152,79.4636332 C28.3567821,81.8941745 36.4100256,81.8941745 41.3591548,79.4636332 C41.5638316,79.3634531 41.8251881,79.423255 41.9429334,79.5974938 C42.0606788,79.7712543 41.9903914,79.9936218 41.7857147,80.0941847 C39.1973408,81.3586364 35.7923966,82 32.3886895,82 Z" id="Fill-5" fill="#DFDFEA"></path>
                        <path d="M31.8013223,86 C28.547517,86 25.2955224,85.138644 22.8188955,83.414977 C22.6027297,83.2636633 22.3909777,83.105391 22.1911091,82.9454814 C21.9939568,82.7877549 21.9408774,82.46739 22.0717086,82.2302544 C22.2026531,81.9931189 22.4682768,81.928582 22.6650896,82.0863085 C22.8502452,82.2355757 23.0452472,82.3810224 23.2468134,82.5212844 C27.9648877,85.8037969 35.6395677,85.8037969 40.356284,82.5212844 C40.5618113,82.3789758 40.8249451,82.4647976 40.9429875,82.7125756 C41.0610299,82.9608993 40.9898423,83.2775803 40.7842018,83.4202983 C38.3072354,85.138644 35.0551277,86 31.8013223,86 Z" id="Fill-6" fill="#DFDFEA"></path>
                        <g id="Group-10" transform="translate(0.000000, 5.000000)">
                            <mask id="mask-5" fill="white">
                                <use xlink:href="#path-4"></use>
                            </mask>
                            <g id="Clip-8"></g>
                            <path d="M31.6966667,81.9371703 C28.7686667,81.9371703 25.8406667,81.296573 23.6172222,80.0143811 C23.4235556,79.9019081 23.2335556,79.7854459 23.0521111,79.6642189 C22.8588889,79.5356784 22.8064444,79.2754946 22.9348889,79.0829054 C23.0633333,78.8903162 23.3242222,78.8379027 23.5173333,78.966 C23.6844444,79.0772541 23.8585556,79.185073 24.0373333,79.2872405 C28.2608889,81.7198703 35.1311111,81.7198703 39.3545556,79.2872405 C39.5564444,79.1716649 39.8146667,79.2413649 39.9305556,79.4430405 C40.0464444,79.644273 39.9765556,79.9019081 39.7747778,80.0174838 C37.5477778,81.2977919 34.6215556,81.9371703 31.6966667,81.9371703 Z" id="Fill-7" fill="#DFDFEA" mask="url(#mask-5)"></path>
                            <path d="M60.9462222,30.4637757 C60.9462222,13.6815892 47.3037778,0.0743540541 30.474,0.0743540541 C17.2474444,0.0747972973 5.53122222,8.58473514 1.47222222,21.1392676 C-2.58633333,33.6938 1.93877778,47.4260297 12.674,55.1317027 C16.4466667,57.8176459 18.6931111,62.149573 18.7101111,66.7724892 L18.7101111,66.7799135 C18.4553333,68.8428784 19.6935556,70.956927 22.4327778,72.5334324 C27.4466667,75.4200541 35.576,75.4200541 40.5855556,72.5334324 C43.0507778,71.1145 44.3012222,69.2600811 44.342,67.4001216 L44.342,67.1711865 C44.3624444,61.8132622 46.6801111,56.7207297 50.7101111,53.1783297 C57.227,47.4187162 60.954,39.1481297 60.9462222,30.4637757 Z" id="Fill-9" fill="#FFCF48" mask="url(#mask-5)"></path>
                        </g>
                        <path d="M60.9999893,35.5447841 C60.9999893,18.6694614 47.4616627,5.00002118 30.7603283,5.00002118 C27.476472,4.99612297 24.2138965,5.5303996 21.0997352,6.58191213 C13.3989588,12.4200844 8.90750083,21.6104888 9.00144501,31.335504 C9.09571997,41.0606306 13.7642605,50.1604853 21.5761821,55.8455138 C25.3113454,58.5646778 27.5643517,73.1455179 27.5643517,77.7959633 C27.7323927,78.448077 27.9515958,79.08638 28.2195352,79.7032985 C32.5387622,80.4372745 37.3924345,79.8089955 40.7990136,77.8238076 C43.2454215,76.3971765 44.4863227,74.5338352 44.5267892,72.6643682 L44.5267892,72.433706 C44.5470776,67.0489505 46.8470561,61.9299411 50.8467406,58.3697676 C57.310475,52.5811582 61.0072666,44.2709682 60.9999893,35.5447841 Z" id="Fill-11" fill="#FFE448"></path>
                        <path d="M25.8005314,66 C24.722187,66.3062572 23.6835585,66.7314259 22.7057522,67.2668559 C17.7647493,70.019229 17.7647493,74.4798319 22.7057522,77.2355993 C24.2367448,78.088017 26.0625431,78.678304 28,79 C27.7486549,78.4315025 27.542132,77.8455954 27.3825874,77.2472058 C27.3825874,75.0037649 26.8231601,70.4118777 25.8005314,66 Z" id="Fill-12" fill="#EFBE43"></path>
                        <path d="M40.3958503,76.9489697 C45.2013832,74.2155717 45.2013832,69.7861406 40.3958503,67.0501331 C36.4985147,64.8339497 30.6400952,64.414372 26,65.7921612 C26.9946136,70.1731001 27.5382738,74.7327863 27.5382738,76.9660399 C27.6934477,77.5601245 27.8943128,78.1420316 28.1387723,78.7064337 C32.339944,79.4187046 37.0788163,78.8356015 40.3958503,76.9489697 Z" id="Fill-13" fill="#EACD3B"></path>
                        <path d="M30.8066151,9.00002306 C27.5297433,8.99567774 24.2811629,9.60547104 21.2300625,10.7970916 C21.0640048,10.8628285 20.970185,11.0390925 21.0085404,11.2131282 C21.0470076,11.3872752 21.2060205,11.5082757 21.3847142,11.4986937 C22.050846,11.4578031 22.7222334,11.4364108 23.3987647,11.4356309 C40.8502539,11.4356309 54.995909,25.5282849 54.995909,42.9182573 C54.995909,43.3312855 54.9880813,43.7417512 54.9723142,44.1499885 C54.9609083,44.4354426 54.987634,44.7210081 55.0518206,45 C56.3818477,41.7627363 57.0436183,38.291828 56.9977708,34.7942908 C56.8375279,20.5501076 45.1021135,9.00314278 30.8066151,9.00002306 Z" id="Fill-14" fill="#FCF295"></path>
                        <polygon id="Fill-15" fill="#FFE448" points="55.8816832 11 54 9.9561303 60.1183168 0 62 1.04375817"></polygon>
                        <polygon id="Fill-16" fill="#FFE448" points="60.3095918 16 59 14.2558414 68.6904082 8 70 9.74415865"></polygon>
                        <polygon id="Fill-17" fill="#FFE448" points="62.4756991 25 62 22.9995673 73.5243009 20 74 22.0004327"></polygon>
                    </g>
                    <g id="Group-6" transform="translate(17.000000, 16.000000)">
                        <circle id="Oval-6" fill="#FF6DB7" cx="72" cy="72" r="72"></circle>
                        <path d="M41.0226932,97.3109739 L41.0226932,62.0688798 C41.0226932,44.8422922 55.0264712,30.8773837 72.2226932,30.8773837 C89.4539774,30.8773837 103.422693,44.8368862 103.422693,62.0833089 L103.422693,97.2346037 C103.422693,101.11553 103.422693,108.877384 99.9560265,108.877384 C96.4893598,108.877384 96.4690474,101.077384 93.0226931,101.077384 C87.8931522,101.077384 87.6048958,108.877384 82.6226933,108.877384 C77.2588311,108.877384 77.3824915,101.077384 72.2226932,101.077384 C67.0628949,101.077384 67.0211271,108.877384 61.9215282,108.877384 C56.9459368,108.877384 56.5621186,101.077384 51.4226932,101.077384 C47.9304243,101.077384 47.9560266,108.877384 44.4893599,108.877384 C41.0226932,108.877384 41.0226932,101.166444 41.0226932,97.3109739 Z" id="Shape" fill="#FFFFFF" fill-rule="nonzero" transform="translate(72.222693, 69.877384) scale(-1, 1) translate(-72.222693, -69.877384) "></path>
                        <path d="M57.2375445,69.796553 C60.6055296,69.796553 63.335821,67.0662616 63.335821,63.6982765 C63.335821,60.3302914 60.6055296,57.6 57.2375445,57.6 C53.8695594,57.6 51.139268,60.3302914 51.139268,63.6982765 C51.139268,67.0662616 53.8695594,69.796553 57.2375445,69.796553 Z" id="Oval" fill="#F49CC9"></path>
                        <circle id="Oval-Copy-2" fill="#F49CC9" cx="78.0982765" cy="63.6982765" r="6.09827652"></circle>
                    </g>
                </g>
            </g>
        </g>
    </g>
</svg>