<?xml version="1.0" encoding="UTF-8"?>
<svg width="176px" height="176px" viewBox="0 0 176 176" version="1.1" xmlns="http://www.w3.org/2000/svg" xmlns:xlink="http://www.w3.org/1999/xlink">
    <!-- Generator: Sketch 48.2 (47327) - http://www.bohemiancoding.com/sketch -->
    <title>Group 14</title>
    <desc>Created with Sketch.</desc>
    <defs>
        <linearGradient x1="108.027596%" y1="-8.56775045%" x2="39.3056837%" y2="58.6356969%" id="linearGradient-1">
            <stop stop-color="#FFFFFF" stop-opacity="0.669270833" offset="0%"></stop>
            <stop stop-color="#FFFFFF" offset="100%"></stop>
        </linearGradient>
        <path d="M71.7868251,143.892654 C111.433594,143.892654 143.57365,111.681186 143.57365,71.9463269 C143.57365,32.2114678 111.433594,0 71.7868251,0 C32.1400563,0 0,32.2114678 0,71.9463269 C0,111.681186 32.1400563,143.892654 71.7868251,143.892654 Z" id="path-2"></path>
    </defs>
    <g id="Spanish" stroke="none" stroke-width="1" fill="none" fill-rule="evenodd" transform="translate(-1098.000000, -1383.000000)">
        <g id="catagory" transform="translate(142.000000, 1383.000000)">
            <g id="creative" transform="translate(956.000000, 0.000000)">
                <g id="Group">
                    <g id="creative-duet-copy">
                        <g id="Group-14">
                            <circle id="Oval" fill-opacity="0.819999993" fill="url(#linearGradient-1)" opacity="0.8203125" cx="88" cy="88" r="88"></circle>
                            <g id="style" transform="translate(16.000000, 16.000000)">
                                <circle id="Oval-6" fill="#EACEFF" fill-rule="nonzero" cx="72" cy="72" r="72"></circle>
                                <g id="Group-10-Copy-2">
                                    <g id="Group-10-Clipped">
                                        <mask id="mask-3" fill="white">
                                            <use xlink:href="#path-2"></use>
                                        </mask>
                                        <g id="path-1"></g>
                                        <g id="Group-10" mask="url(#mask-3)">
                                            <g transform="translate(23.000000, 22.000000)" id="Group">
                                                <g transform="translate(0.140515, 0.480769)">
                                                    <path d="M94.7056423,72.4217049 C94.7056423,72.4217049 99.0533545,81.7705976 101.089984,83.5325443 C94.4340286,81.7705976 87.5111914,80.5525316 84.9284953,77.3005786 C90.3617158,85.0234949 92.1257853,86.5153897 92.1257853,86.5153897 C92.1257853,86.5153897 80.312955,84.4815027 70.3976351,77.843515 C72.5714911,84.0735922 74.8797344,88.1394777 74.8797344,88.1394777 C74.8797344,88.1394777 66.4606559,89.3594322 61.2999954,84.3464768 C56.139335,79.3325771 46.9063617,87.8675374 46.9063617,87.8675374 L42.2870359,92.475415 C42.2870359,92.475415 34.8190785,96.4034419 22.597408,82.8536377 C10.3747912,69.3047778 8.20377428,38.9541607 27.8934021,31.0943301 C47.58303,23.2344995 73.9286133,43.1531837 75.9652429,46.1331964 C78.0037653,49.113209 94.7056423,72.4217049 94.7056423,72.4217049" id="Fill-23" fill="#C9BCA9" fill-rule="nonzero"></path>
                                                    <path d="M93.510639,138.086196 L0.06984509,138.086196 C0.06984509,138.086196 -0.603984039,132.259308 2.23423725,120.748112 C3.07084533,117.388516 4.6371195,114.93822 6.63683993,113.122452 C12.15145,108.165207 20.8856761,108.165207 26.2715772,108.165207 C34.0603605,107.913095 36.3704966,99.7237258 36.991328,93.5880724 C37.3727228,89.848893 37.1351791,86.8698245 37.1351791,86.8698245 L56.4424657,86.8698245 C56.4424657,86.8698245 56.0979801,90.4277104 56.6790631,94.6588374 C57.4806547,100.341257 59.9724976,107.221914 67.2880863,108.165207 C73.0213122,108.583504 79.9346855,108.473972 85.0111173,111.598453 C87.9051756,113.3604 90.1982767,116.190279 91.344354,120.748112 C94.1835217,132.259308 93.510639,138.086196 93.510639,138.086196" id="Fill-24" fill="#CF9E76" fill-rule="nonzero"></path>
                                                    <path d="M47.8929732,99.7076738 C47.4898114,99.7076738 47.1065237,99.6699043 46.7894833,99.5896441 C42.8411475,98.5009386 39.5827294,95.6776693 36.9091798,93.7901391 C37.0785835,92.1245047 37.125903,90.6099482 37.125903,89.4428709 C37.125903,89.1983135 37.1240102,88.9698081 37.1202246,88.758299 C39.7559186,90.3049595 42.9471431,91.6646611 46.783805,92.5607423 C47.1103093,92.6325043 47.5040072,92.6674411 47.9175793,92.6674411 C48.6841546,92.6674411 49.5160307,92.5494114 50.0999529,92.3360138 C52.0656033,91.6174493 54.1751049,90.7714127 56.2590539,89.6987592 L56.2590539,89.7573019 C56.2590539,91.1339998 56.3309795,92.9271063 56.5969149,94.8609041 C54.3956136,96.2224942 52.1753844,98.4263439 50.1018456,99.3167596 C49.5150843,99.5669825 48.668066,99.7076738 47.8929732,99.7076738" id="Fill-25" fill="#B87A50" fill-rule="nonzero"></path>
                                                    <path d="M93.5170851,137.904902 L0.0696664648,137.904902 C0.0696664648,137.904902 -0.605109054,132.079903 2.2454153,120.568707 C3.07350587,117.208166 4.64545837,114.745596 6.64801798,112.935493 C11.3279127,117.208166 23.4189815,124.894257 49.8232409,124.894257 C66.0046039,124.566607 78.3019855,117.03726 85.0185098,111.419992 C87.9031042,113.177218 90.2018836,116.005208 91.3403898,120.568707 C94.1909142,132.079903 93.5170851,137.904902 93.5170851,137.904902" id="Fill-26" fill="#FFFFFF" fill-rule="nonzero"></path>
                                                    <path d="M70.230938,70.4658338 C69.8855059,74.4099127 68.7801233,77.6495906 67.2252058,80.3217819 C63.2711916,87.0919628 56.2925174,90.2787635 50.5422565,92.3815798 C49.6441331,92.7092301 48.1592484,92.8121519 47.2261086,92.6063082 C37.0543172,90.2287189 31.4072127,84.5944554 28.6787726,80.855276 C27.1248015,78.7524597 26.501131,77.2360147 26.501131,77.2360147 C25.2755569,74.8074366 17.1432343,62.8666126 16.1940059,53.5281065 C15.2428847,44.1716599 20.8029214,31.1610152 29.9034002,26.8354645 C39.0076646,22.4929175 70.6435637,54.8878081 70.230938,70.4658338" id="Fill-27" fill="#CF9E76" fill-rule="nonzero"></path>
                                                    <path d="M28.6793791,80.8559776 C27.125408,78.7531613 26.5017375,77.2367164 26.5017375,77.2367164 C25.2761635,74.8081382 17.1438408,62.8673143 16.1946124,53.5288082 C16.1236332,52.8338496 16.0895632,52.119062 16.0886168,51.3901109 C16.0886168,42.2886083 21.4792499,30.8406762 29.9040068,26.8361661 C30.4680548,26.5670585 31.1172778,26.4386422 31.8403191,26.4386422 C42.7266344,26.4386422 70.2391156,55.4522194 70.2362764,70.1643796 C70.2362764,70.2654129 70.2343837,70.3664463 70.2315445,70.4665355 C69.8861124,74.4106144 68.7807298,77.6502923 67.2258123,80.3224836 C37.4192836,66.4676908 31.0453522,46.1174902 31.0453522,46.1174902 C28.5071363,55.9394458 27.7822021,68.9661425 28.6793791,80.8559776" id="Fill-28" fill="#B4744A" fill-rule="nonzero"></path>
                                                    <path d="M39.7483475,77.5132179 C39.7483475,77.5132179 42.9603925,74.2282166 48.4220048,74.6285732 C53.8817242,75.0317624 56.4521174,78.3148753 56.4521174,78.3148753 C56.4521174,78.3148753 54.7845795,83.9264771 48.6718515,83.763124 C42.6490305,83.603548 40.3123955,80.3997511 39.7483475,77.5132179" id="Fill-29" fill="#A16A4D" fill-rule="nonzero"></path>
                                                    <path d="M43.5339044,78.0171196 C43.5339044,78.0171196 48.432415,76.4959534 53.4113688,78.3400487 C51.965286,79.459914 47.7093737,80.1019953 43.5339044,78.0171196" id="Fill-30" fill="#FFFFFF" fill-rule="nonzero"></path>
                                                    <path d="M29.0015902,36.3419278 C29.0015902,36.3419278 37.3619927,63.0742278 79.7980856,76.1160323 C77.654514,71.6271286 73.5803083,63.9287625 70.3654241,55.5902036 C81.9426035,69.7018289 86.2297467,69.7018289 99.9448194,76.1160323 C97.3725335,72.4816633 96.5151049,69.7018289 96.5151049,69.7018289 C96.5151049,69.7018289 102.943927,73.1218561 112.80341,75.903579 C105.730097,67.5631316 87.295381,35.4892816 79.3665321,23.5163536 C71.4357904,11.5415371 47.2186364,-10.2703427 29.6432421,5.55224044 C23.2144201,6.4086636 12.070687,11.5415371 5.85574892,27.1516669 C-0.360135518,42.7608524 0.499185899,79.9656875 33.2887334,97.9260237 C26.00059,86.3808352 24.0756343,55.3739733 29.0015902,36.3419278" id="Fill-31" fill="#FFFFFF" fill-rule="nonzero"></path>
                                                </g>
                                            </g>
                                        </g>
                                    </g>
                                </g>
                            </g>
                        </g>
                    </g>
                </g>
            </g>
        </g>
    </g>
</svg>