<?xml version="1.0" encoding="UTF-8"?>
<svg width="176px" height="176px" viewBox="0 0 176 176" version="1.1" xmlns="http://www.w3.org/2000/svg" xmlns:xlink="http://www.w3.org/1999/xlink">
    <!-- Generator: Sketch 48.2 (47327) - http://www.bohemiancoding.com/sketch -->
    <title>comedy copy 2</title>
    <desc>Created with Sketch.</desc>
    <defs>
        <linearGradient x1="108.027596%" y1="-8.56775045%" x2="39.3056837%" y2="58.6356969%" id="linearGradient-1">
            <stop stop-color="#FFFFFF" stop-opacity="0.669270833" offset="0%"></stop>
            <stop stop-color="#FFFFFF" offset="100%"></stop>
        </linearGradient>
        <radialGradient cx="50%" cy="50%" fx="50%" fy="50%" r="50%" gradientTransform="translate(0.500000,0.500000),scale(1.000000,0.999613),rotate(90.000000),translate(-0.500000,-0.500000)" id="radialGradient-2">
            <stop stop-color="#FFAAC1" stop-opacity="0.7" offset="0%"></stop>
            <stop stop-color="#FFAAC1" stop-opacity="0" offset="100%"></stop>
        </radialGradient>
    </defs>
    <g id="Spanish" stroke="none" stroke-width="1" fill="none" fill-rule="evenodd" transform="translate(-142.000000, -1390.000000)">
        <g id="catagory" transform="translate(142.000000, 1390.000000)">
            <g id="comedy">
                <g id="comedy-copy-2">
                    <circle id="Oval-Copy-2" fill-opacity="0.819999993" fill="url(#linearGradient-1)" opacity="0.8203125" cx="88" cy="88" r="88"></circle>
                    <circle id="Oval-6-Copy" fill="#FEC81E" cx="88.5" cy="88.5" r="77.5"></circle>
                    <g id="Page-1-Copy" transform="translate(37.909722, 38.909722)">
                        <path d="M100.326819,50.2178179 C100.326819,77.9346144 77.8678328,100.403254 50.1629448,100.403254 C22.4590892,100.403254 0.000103245465,77.9346144 0.000103245465,50.2178179 C0.000103245465,22.5010215 22.4590892,0.0323819795 50.1629448,0.0323819795 C77.8678328,0.0323819795 100.326819,22.5010215 100.326819,50.2178179" id="Fill-1" fill="#FFFFFF"></path>
                        <path d="M74.9727268,67.4088629 C88.4380003,67.4088629 99.3551757,56.4890607 99.3551757,43.0169665 C99.3551757,29.5459052 88.4380003,18.6250701 74.9727268,18.6250701 C61.5074532,18.6250701 50.5902778,29.5459052 50.5902778,43.0169665 C50.5902778,56.4890607 61.5074532,67.4088629 74.9727268,67.4088629 Z" id="Fill-6" fill="url(#radialGradient-2)"></path>
                        <path d="M24.382449,67.4088629 C37.8477225,67.4088629 48.764898,56.4890607 48.764898,43.0169665 C48.764898,29.5459052 37.8477225,18.6250701 24.382449,18.6250701 C10.9171755,18.6250701 0,29.5459052 0,43.0169665 C0,56.4890607 10.9171755,67.4088629 24.382449,67.4088629 Z" id="Fill-6-Copy" fill="url(#radialGradient-2)"></path>
                        <g id="Group-12" transform="translate(32.006094, 39.461833)">
                            <path d="M28.5976516,3.51991127 C28.5976516,3.51991127 35.3199638,17.5735273 35.4159821,30.4930208 C35.4913513,40.7497022 26.6081115,44.9742568 18.1574702,44.9742568 C9.70682887,44.9742568 0.822556618,40.7497022 0.898958262,30.4930208 C0.994976545,17.5735273 7.71728876,3.51991127 7.71728876,3.51991127" id="Fill-8" fill="#FC4747"></path>
                            <path d="M18.1573669,5.79414703 C14.183449,5.79414703 10.1899144,5.42746808 6.28930074,4.70443918 C5.05551743,4.47513573 4.23987826,3.28833544 4.46805074,2.05402182 C4.69725567,0.818675295 5.8804487,0.00268553591 7.11732937,0.231988987 C14.3744531,1.57785564 21.9402808,1.57785564 29.196372,0.231988987 C30.4332527,0.00475133277 31.6174782,0.818675295 31.8456507,2.05402182 C32.0748556,3.28833544 31.2592164,4.47513573 30.0254331,4.70443918 C26.1248194,5.42746808 22.1312849,5.79414703 18.1573669,5.79414703" id="Fill-10" fill="#232323"></path>
                        </g>
                        <g id="Group-17" transform="translate(24.778912, 19.836763)" fill="#232323">
                            <path d="M15.282084,7.24981078 C15.282084,11.203746 12.0783772,14.4088298 8.1261408,14.4088298 C4.17390441,14.4088298 0.969165179,11.203746 0.969165179,7.24981078 C0.969165179,3.2958756 4.17390441,0.0907917719 8.1261408,0.0907917719 C12.0783772,0.0907917719 15.282084,3.2958756 15.282084,7.24981078" id="Fill-13"></path>
                            <path d="M47.1455961,14.1112518 C46.8337948,14.1112518 46.5178637,14.037916 46.2225816,13.8829812 C46.1936729,13.8674877 43.255307,12.3336336 40.4883285,11.6188678 C37.5654494,10.864852 33.9012679,10.2358168 33.8651319,10.2296195 C33.0732392,10.0943098 32.4403445,9.49522868 32.2617299,8.71229167 C32.0820828,7.92935466 32.3907867,7.1143978 33.0443305,6.64752771 C33.1640952,6.56283004 36.0116052,4.54144781 39.1925979,3.2317326 C42.6141526,1.82389205 45.7197762,1.04508663 45.850898,1.01306678 C46.9174236,0.746578984 47.9953063,1.39730499 48.2596147,2.46325617 C48.5249555,3.52920735 47.876574,4.60858621 46.8110808,4.875074 C46.7811396,4.88230429 43.845871,5.61979377 40.7061764,6.91194971 C40.3768234,7.0472594 40.0516002,7.19186518 39.7325717,7.34266835 C40.3200384,7.47694515 40.9116349,7.61845223 41.4825823,7.76512381 C44.7069382,8.59763994 47.9374888,10.2884947 48.0737728,10.3607976 C49.0453126,10.8720823 49.4190612,12.0743761 48.9079962,13.0463335 C48.5528318,13.7239148 47.8610872,14.1112518 47.1455961,14.1112518" id="Fill-15"></path>
                        </g>
                    </g>
                </g>
            </g>
        </g>
    </g>
</svg>