<?xml version="1.0" encoding="UTF-8"?>
<svg width="176px" height="176px" viewBox="0 0 176 176" version="1.1" xmlns="http://www.w3.org/2000/svg" xmlns:xlink="http://www.w3.org/1999/xlink">
    <!-- Generator: Sketch 48.2 (47327) - http://www.bohemiancoding.com/sketch -->
    <title>Food-Icons-15</title>
    <desc>Created with Sketch.</desc>
    <defs>
        <linearGradient x1="108.027596%" y1="-8.56775045%" x2="39.3056837%" y2="58.6356969%" id="linearGradient-1">
            <stop stop-color="#FFFFFF" stop-opacity="0.669270833" offset="0%"></stop>
            <stop stop-color="#FFFFFF" offset="100%"></stop>
        </linearGradient>
        <polygon id="path-2" points="0 0.0615096181 111.877108 0.0615096181 111.877108 98.8490885 0 98.8490885"></polygon>
    </defs>
    <g id="Spanish" stroke="none" stroke-width="1" fill="none" fill-rule="evenodd" transform="translate(-632.000000, -1390.000000)">
        <g id="catagory" transform="translate(142.000000, 1390.000000)">
            <g id="cooking" transform="translate(490.000000, 0.000000)">
                <g id="Food-Icons-15">
                    <g id="dancer-copy">
                        <circle id="Oval" fill-opacity="0.819999993" fill="url(#linearGradient-1)" opacity="0.8203125" cx="88" cy="88" r="88"></circle>
                        <path d="M90.1266091,166.999551 C46.9776263,166.999551 11.9998206,132.021746 11.9998206,88.87366 C11.9998206,45.7255743 46.9776263,10.7477686 90.1266091,10.7477686 C133.274695,10.7477686 168.252501,45.7255743 168.252501,88.87366 C168.252501,132.021746 133.274695,166.999551 90.1266091,166.999551 Z" id="Fill-1" fill="#FEE6F6"></path>
                    </g>
                    <path d="M88.4996162,33 C58.4000406,33 34,57.4005355 34,87.5003071 C34,117.600079 58.4000406,142 88.4996162,142 C118.599345,142 143,117.600079 143,87.5003071 C143,57.4005355 118.599345,33 88.4996162,33 Z M88.4996162,102.823087 C82.3021932,102.823087 76.7147328,99.0897669 74.3433553,93.3642777 C71.9715172,87.638328 73.282484,81.0474061 77.6646041,76.6652798 C82.0473384,72.2831534 88.6376369,70.9721848 94.3637321,73.3434121 C100.089213,75.7152536 103.822375,81.3028753 103.822375,87.5003071 C103.822375,95.9628788 96.962176,102.823087 88.4996162,102.823087 Z" id="Fill-1" fill="#FF9999"></path>
                    <path d="M88.999924,143 C58.072058,143 33,117.927824 33,87 C33,56.0721759 58.072058,31 88.999924,31 C119.92779,31 145,56.0721759 145,87 C145,117.927824 119.92779,143 88.999924,143 Z M88.999924,35.1484914 C68.0282077,35.1484914 49.1207898,47.7812696 41.0951062,67.1568464 C33.0694226,86.5330308 37.5056362,108.83514 52.3351951,123.664679 C67.164754,138.49437 89.4668939,142.930577 108.843105,134.904905 C128.218708,126.879232 140.851503,107.97184 140.851503,87 C140.851503,58.3626645 117.637298,35.1484914 88.999924,35.1484914 Z M88.999924,104.235175 C79.4812738,104.235175 71.7647261,96.5186374 71.7647261,87 C71.7647261,77.480755 79.4812738,69.7642178 88.999924,69.7642178 C98.519182,69.7642178 106.23573,77.480755 106.23573,87 C106.223881,96.5139282 98.5144728,104.223933 88.999924,104.235175 Z M88.999924,73.9127091 C83.7067889,73.9127091 78.9347033,77.1009817 76.908838,81.991702 C74.8831246,86.8819665 76.0028497,92.510814 79.7459001,96.2540114 C83.4891025,99.9972087 89.1181096,101.116932 94.0082289,99.0910696 C98.8989558,97.0652071 102.087385,92.293128 102.087385,87 C102.075991,79.7765604 96.2233734,73.9239504 88.999924,73.9127091 Z" id="Fill-2"></path>
                    <g id="Group-6" transform="translate(33.000000, 44.000000)">
                        <mask id="mask-3" fill="white">
                            <use xlink:href="#path-2"></use>
                        </mask>
                        <g id="Clip-4"></g>
                        <path d="M38.1328652,26.7454168 L37.7800777,26.7454168 L27.6869243,25.0732992 C26.5420347,24.8855771 25.7675416,23.8092733 25.9560795,22.6691863 C26.1452246,21.5297038 27.2262056,20.7581084 28.3706398,20.9464351 L38.4850455,22.6177969 C39.6294796,22.7087863 40.4833651,23.7070992 40.3921322,24.8465817 C40.3001402,25.9860641 39.2980962,26.836255 38.153662,26.7454168 L38.1328652,26.7454168 Z M42.2778148,14.239374 L41.9254827,14.239374 C41.3841573,14.1436992 40.9026418,13.8377817 40.5878047,13.3891832 C40.2729677,12.939829 40.15016,12.3848244 40.2468578,11.8458412 L42.0293151,1.79590534 C42.2296936,0.656271756 43.3196309,-0.105952672 44.4646723,0.0931053435 C45.6091064,0.292616794 46.3746432,1.37844275 46.1742647,2.51792519 L44.3916556,12.5678611 C44.1984118,13.5685924 43.3006557,14.2782183 42.2778148,14.239374 Z M61.1800297,17.4587634 C60.204551,17.4871786 59.3412539,16.8336275 59.1076308,15.8901802 L56.7653282,5.98473893 C56.5400543,4.89906412 57.2166351,3.83031756 58.2970089,3.56415115 C59.3779899,3.29783359 60.4773389,3.92961985 60.7862557,4.99473893 L63.2525804,14.900029 C63.5264309,16.0052015 62.8492429,17.1223145 61.7398749,17.3967939 L61.1800297,17.4587634 Z M72.3719249,23.3605237 C71.4319678,23.3576519 70.6119342,22.7252611 70.3736053,21.8202046 C70.1351246,20.9151481 70.5384621,19.9633878 71.3566741,19.5016397 L80.3100992,14.5492214 C81.311536,13.9789511 82.5877342,14.3255267 83.1598754,15.3227817 C83.7321684,16.3198855 83.3840867,17.5905618 82.3824981,18.1602275 L73.4292248,23.1132504 C73.1048243,23.287974 72.7401962,23.3729176 72.3719249,23.3605237 Z M90.1961949,33.6791954 L89.760979,33.6791954 L79.750254,31.6151588 C78.6058198,31.3760473 77.8729205,30.2577252 78.113071,29.1182427 C78.3532215,27.9787603 79.4764034,27.2484275 80.6208376,27.4881435 L90.6314108,29.5515756 C91.7764522,29.6714336 92.6066565,30.6922672 92.4868848,31.8317496 C92.366506,32.9718366 91.3412363,33.7984489 90.1961949,33.6791954 Z M11.1886435,36.815455 C10.166258,36.8573221 9.26622482,36.1499634 9.06933781,35.1504412 C8.87305802,34.1503145 9.43882352,33.1572916 10.4010955,32.8123786 L18.8160794,29.4688992 C19.880514,29.0473557 21.0871869,29.564574 21.5105623,30.6250076 C21.9339376,31.6848366 21.4144717,32.885684 20.3495817,33.3072275 L11.935205,36.6714137 C11.6973315,36.7646702 11.444126,36.8136412 11.1886435,36.815455 Z M105.750143,36.9478848 C104.097352,36.1488207 102.25036,35.8377254 100.426088,36.0509824 C97.0300842,36.3010816 94.724222,39.1811979 94.724222,43.3767814 L94.724222,54.6685495 C94.7877791,59.1388446 91.3042691,62.8651098 86.8222685,63.1219354 C82.3155513,62.7599335 78.8613635,58.9823033 78.9201615,54.480975 C78.8968265,52.9199948 78.7499084,51.3639065 78.4800212,49.8261628 C77.7045944,44.7544676 70.8711364,45.6519815 70.8298396,45.6519815 C69.3833793,53.4581057 63.9544707,57.7576424 55.5701591,57.7576424 C46.179681,57.7576424 40.3321248,51.8923864 40.3321248,42.542098 C40.6901322,40.856221 40.6901322,39.1143927 40.3321248,37.4279042 C37.9214088,31.8971331 25.219516,31.4588479 25.0096549,43.3559907 L25.0096549,54.6476059 C25.0732119,59.1179011 21.5895484,62.8441662 17.1075478,63.1009919 C12.6009842,62.7391429 9.1467964,58.9615126 9.20559435,54.4600315 C9.28649911,52.8955352 9.13773875,51.32737 8.76530055,49.8052193 C7.85922871,47.2511799 5.40644835,45.5666787 2.68700469,45.6311909 C2.07461557,45.6233944 1.51457659,45.2882981 1.2195122,44.7544676 C1.63631752,74.7252575 26.3733682,98.6855626 56.4714718,98.270514 C86.569729,97.8556183 110.630834,73.2228274 110.214182,43.251426 C110.067878,40.5588842 107.300843,37.8453988 105.750143,36.9478848 Z" id="Fill-3" fill="#603913" mask="url(#mask-3)"></path>
                        <path d="M55.947794,98.8487038 C25.8842927,98.9590397 1.14124661,75.3208626 0.00242818428,45.4006443 C-0.0432520325,44.4807756 0.528737127,43.6417695 1.40379404,43.3447695 C2.27945799,43.0477695 3.24633062,43.3648718 3.77385366,44.1212015 C7.17604336,44.174858 10.2000434,46.2939115 11.3986558,49.4655389 C11.9085745,51.270513 12.1254417,53.1444092 12.0413659,55.0166427 C12.0301355,58.3052565 14.5009648,61.0771053 17.7809864,61.4555725 C21.0669268,61.2046718 23.5846504,58.4427985 23.52,55.1612885 L23.52,43.9971115 C23.6238049,37.8062107 26.7734634,33.6791954 31.932748,32.5852076 C36.1618862,31.5489573 40.5588726,33.4925313 42.6248022,37.3107573 C43.2312412,39.1906992 43.3528022,41.1921618 42.9770407,43.1304458 C42.9770407,51.3849298 47.804878,56.1518931 55.947794,56.1518931 C63.2413008,56.1518931 67.7584824,52.5611405 69.0017127,45.8339771 C69.1694092,44.9076092 69.9449106,44.2114351 70.8875014,44.1417573 C75.0311978,43.7699405 79.9006179,45.1113527 80.6677724,50.1056382 C80.9523252,51.7416321 81.1053008,53.3977282 81.1230569,55.0579053 C81.1118266,58.3465191 83.5832629,61.1185191 86.8626775,61.4969863 C90.1487696,61.2454809 92.6669485,58.4840611 92.6024499,55.2025511 L92.6024499,43.9971115 C92.6024499,38.7761084 95.6483035,35.0407099 100.165637,34.7106092 C102.3809,34.4609176 104.620596,34.8629634 106.609431,35.8665664 C108.681431,37.0840397 112.017756,40.3442382 111.87252,43.9145863 C111.342569,74.3301069 86.4916206,98.7406351 55.947794,98.8487038 Z M4.41595664,48.3101863 C7.18666667,75.5132702 30.7867967,95.8394061 58.2148076,94.6449069 C85.6432737,93.4511634 107.372488,71.1519802 107.748856,43.8112031 C107.748856,42.3050427 105.863675,40.1796412 104.537583,39.4363099 C103.244119,38.8398916 101.805875,38.6249634 100.393279,38.8175221 C98.0936369,38.9822702 96.6637398,40.8809542 96.6637398,43.9971115 L96.6637398,55.1612885 C96.7255068,60.719345 92.3552304,65.327455 86.780271,65.5825878 C81.183458,65.2319313 76.8411057,60.5805939 76.8961951,54.9965405 C76.877832,53.6132611 76.7533875,52.233458 76.5233171,50.8689206 C76.212813,48.8054885 74.140206,48.3101863 72.6486938,48.2275099 C70.5768455,55.9452779 64.567393,60.3203221 55.8855718,60.3203221 C45.5254201,60.3203221 38.7501789,53.6137145 38.7501789,43.2131221 C38.7389485,43.0136107 38.7389485,42.8139481 38.7501789,42.6144366 C39.0316965,41.4200885 39.0316965,40.1766183 38.7501789,38.9822702 C37.4234797,36.9942595 34.9798157,36.0585206 32.6577127,36.6507069 C29.5086612,37.2694947 27.643664,39.9728748 27.5814417,44.0592321 L27.5814417,55.1818443 C27.6430569,60.7400519 23.2729322,65.3481618 17.6979729,65.6032947 C12.1011599,65.252487 7.75880759,60.6013008 7.81389702,55.0166427 C7.9058645,53.7359908 7.85714905,52.4488397 7.66926829,51.1783145 C7.19091599,49.7028366 5.94419512,48.6041634 4.41595664,48.3101863 Z" id="Fill-5" mask="url(#mask-3)"></path>
                    </g>
                    <path d="M90.367473,132.999929 C84.8404781,132.966255 79.3718729,131.967465 74.2553008,130.056534 C73.2346362,129.644845 72.7428685,128.577158 73.1341874,127.622327 C73.524736,126.666791 74.6626422,126.157181 75.7273687,126.459397 C80.3954647,128.229294 85.3983387,129.143971 90.4517452,129.152283 C95.4449133,129.158342 100.378459,128.159974 104.902353,126.228191 C105.578687,125.896952 106.397838,125.92823 107.041665,126.309627 C107.685031,126.691588 108.050313,127.363647 107.994388,128.063181 C107.93908,128.762574 107.471346,129.37898 106.774521,129.671897 C101.641156,131.873772 96.0382083,133.010355 90.367473,132.999929 Z" id="Fill-7" fill="#FF9999"></path>
                </g>
            </g>
        </g>
    </g>
</svg>