<?xml version="1.0" encoding="UTF-8"?>
<svg width="176px" height="176px" viewBox="0 0 176 176" version="1.1" xmlns="http://www.w3.org/2000/svg" xmlns:xlink="http://www.w3.org/1999/xlink">
    <!-- Generator: Sketch 48.2 (47327) - http://www.bohemiancoding.com/sketch -->
    <title>Group 14</title>
    <desc>Created with Sketch.</desc>
    <defs>
        <linearGradient x1="108.027596%" y1="-8.56775045%" x2="39.3056837%" y2="58.6356969%" id="linearGradient-1">
            <stop stop-color="#FFFFFF" stop-opacity="0.669270833" offset="0%"></stop>
            <stop stop-color="#FFFFFF" offset="100%"></stop>
        </linearGradient>
        <polygon id="path-2" points="0.00982206406 0.0701260174 91.9328353 0.0701260174 91.9328353 83.8367393 0.00982206406 83.8367393"></polygon>
    </defs>
    <g id="Spanish" stroke="none" stroke-width="1" fill="none" fill-rule="evenodd" transform="translate(-387.000000, -1390.000000)">
        <g id="catagory" transform="translate(142.000000, 1390.000000)">
            <g id="fitness" transform="translate(245.000000, 0.000000)">
                <g id="Group-14">
                    <g id="comedy-copy">
                        <circle id="Oval-Copy" fill-opacity="0.819999993" fill="url(#linearGradient-1)" opacity="0.8203125" cx="88" cy="88" r="88"></circle>
                        <circle id="Oval-6-Copy" fill="#B1FAFF" cx="88.5" cy="88.5" r="77.5"></circle>
                    </g>
                    <g id="sports_mode" transform="translate(44.000000, 31.000000)">
                        <path d="M41.0000001,13.9996719 C40.9993439,19.0017283 43.6677996,23.6232006 47.9995079,26.1242288 C52.3310522,28.6252571 57.6681276,28.6252571 62.0004922,26.1242288 C66.3320365,23.6232006 69,19.0017283 69,13.9996719 C69,8.99827167 66.3320365,4.37679937 62.0004922,1.87577116 C57.6681276,-0.625257052 52.3310522,-0.625257052 47.9995079,1.87577116 C43.6677996,4.37679937 40.9993439,8.99827167 41.0000001,13.9996719 Z" id="Fill-1" fill="#FFE8A0"></path>
                        <path d="M58.6703065,64.7443292 L33.1428728,53.2777022 C30.3682365,51.8795249 28.9805933,56.0743845 27.5936003,58.8710669 C26.2057945,61.6679131 16.2172016,79.008458 17.0491372,82.085038 C17.8817232,84.6019866 20.1013021,86 22.3216939,86 C22.8761009,86 23.4311582,86 23.9862155,85.7202662 L58.1158995,75.0928405 C60.3354784,74.5333729 62,72.2959943 62,70.0587795 C62,67.8209092 60.6130071,65.5835306 58.6703065,64.7443292 Z" id="Fill-3" fill="#FF7575"></path>
                        <g id="Group-7" transform="translate(0.000000, 28.000000)">
                            <mask id="mask-3" fill="white">
                                <use xlink:href="#path-2"></use>
                            </mask>
                            <g id="Clip-5"></g>
                            <path d="M52.3491459,3.51051362 L46.2026619,0.72151751 C42.5712811,-0.952272374 38.1007687,0.72151751 36.4247972,4.34691829 L3.17809253,75.7478988 C1.78090391,78.5375486 3.17809253,81.8839844 5.97181495,83.2788093 C6.81029181,83.5577743 7.64795018,83.8367393 8.48626335,83.8367393 C10.7211103,83.8367393 12.6771744,82.7208794 13.5149964,80.7686148 C13.5149964,80.7686148 40.3356157,43.6732996 42.5712811,39.2110039 C44.8061281,34.7482179 56.2607829,13.272 56.2607829,13.272 C57.6579715,9.64659922 56.2607829,5.18381323 52.3491459,3.51051362 Z" id="Fill-4" fill="#0D70FF" mask="url(#mask-3)"></path>
                            <path d="M90.6252384,4.90484825 C88.6690107,2.67361868 85.0369751,2.11568872 82.8019644,4.06778988 L68.8330249,15.7826848 L50.9526121,6.02070817 C47.8792883,4.34691829 43.6883772,4.90484825 41.732968,8.5307393 C39.4979573,12.1567938 40.6150534,16.6189261 43.9678149,18.013751 L67.1563986,27.4969261 C67.9947117,27.7758911 68.8330249,28.0542023 69.6715018,28.0542023 C71.0680356,28.0542023 72.1857865,27.4969261 73.3028826,26.6600311 L90.066363,12.7147237 C92.30121,10.7618054 92.5806477,7.41487938 90.6252384,4.90484825 Z M10.1622349,25.5441712 L19.6613167,11.3197354 L32.5131601,12.993035 L36.7042349,4.34691829 C37.821331,1.83672374 40.0561779,0.442552529 42.5712811,0.163587549 L16.8675943,0.163587549 C14.9121851,0.163587549 13.2355587,1.00048249 12.1182989,2.67361868 L0.943245552,19.4080856 C-0.733380783,21.9187704 -0.174505338,25.5441712 2.61921708,27.2179611 C3.17809253,27.7758911 4.29518861,28.0542023 5.4129395,28.0542023 C7.08972954,28.0542023 9.04513879,27.2179611 10.1622349,25.5441712 Z" id="Fill-6" fill="#FF7575" mask="url(#mask-3)"></path>
                        </g>
                    </g>
                </g>
            </g>
        </g>
    </g>
</svg>