<?xml version="1.0" encoding="UTF-8"?>
<svg width="176px" height="176px" viewBox="0 0 176 176" version="1.1" xmlns="http://www.w3.org/2000/svg" xmlns:xlink="http://www.w3.org/1999/xlink">
    <!-- Generator: Sketch 48.2 (47327) - http://www.bohemiancoding.com/sketch -->
    <title>Group 16</title>
    <desc>Created with Sketch.</desc>
    <defs>
        <linearGradient x1="108.027596%" y1="-8.56775045%" x2="39.3056837%" y2="58.6356969%" id="linearGradient-1">
            <stop stop-color="#FFFFFF" stop-opacity="0.669270833" offset="0%"></stop>
            <stop stop-color="#FFFFFF" offset="100%"></stop>
        </linearGradient>
        <path d="M8.13459736,11.5781919 C5.1737492,14.9301356 3.25227989,18.3500959 2.36593841,21.8423238 C1.47959693,25.3324263 1.03748894,27.6534932 1.03748894,28.8012735 C1.59012392,24.5757414 5.18225127,21.2960654 9.53956551,21.2960654 C13.8968798,21.2960654 17.4890071,24.5757414 17.9842531,28.8012735 L18.0416421,30.8609015 L18.0416421,36.1746994 L18.0416421,44.676776 C18.0416421,49.3741733 21.8484469,53.1788525 26.5437187,53.1788525 C31.2389904,53.1788525 35.0457952,49.3741733 35.0457952,44.676776 L35.0457952,36.7060792 L35.0457952,28.7353824 C35.0457952,24.6267539 38.3764837,21.2960654 42.4851122,21.2960654 C46.5937407,21.2960654 49.9244292,24.6267539 49.9244292,28.7353824 L49.9244292,31.4262896 L49.9244292,34.0491803 C49.9244292,38.744452 53.731234,42.5512568 58.4265058,42.5512568 C63.1217776,42.5512568 66.9285824,38.744452 66.9285824,34.0491803 L66.9285824,28.8012735 C67.4790918,24.5757414 71.0712192,21.2960654 75.4306589,21.2960654 C79.7900987,21.2960654 83.3801005,24.5757414 83.8753465,28.8012735 L83.9327355,11.5781919 L34.7588501,0.0408739811 L8.13459736,11.5781919 Z" id="path-2"></path>
    </defs>
    <g id="Spanish" stroke="none" stroke-width="1" fill="none" fill-rule="evenodd" transform="translate(-632.000000, -1390.000000)">
        <g id="catagory" transform="translate(142.000000, 1390.000000)">
            <g id="cooking" transform="translate(490.000000, 0.000000)">
                <g id="Group-16">
                    <g id="dancer" fill="url(#linearGradient-1)" fill-opacity="0.819999993" opacity="0.8203125">
                        <circle id="Oval" cx="88" cy="88" r="88"></circle>
                    </g>
                    <g id="Group-36-Copy" transform="translate(15.000000, 15.000000)">
                        <g id="Group-39" transform="translate(0.800000, 0.800000)">
                            <circle id="Oval-6-Copy-5" fill="#FF8901" cx="72.2" cy="72.2" r="72"></circle>
                            <circle id="Oval-21" fill="#FF496E" cx="60.2031862" cy="43.4031862" r="11.5939328"></circle>
                            <path d="M57.2080532,44.2557201 C59.469926,44.2557201 61.3035362,42.4221099 61.3035362,40.1602371 C61.3035362,37.8983644 59.469926,36.0647542 57.2080532,36.0647542 C54.9461805,36.0647542 53.1125703,37.8983644 53.1125703,40.1602371 C53.1125703,42.4221099 54.9461805,44.2557201 57.2080532,44.2557201 Z" id="Oval-21-Copy" fill="#FF738F"></path>
                            <path d="M85.7209249,43.5720773 L80.3842175,45.3509797 C78.6365489,45.933536 77.6920386,47.8225565 78.2745948,49.5702252 C78.857151,51.3178939 80.7461716,52.2624041 82.4938403,51.6798479 L87.8305476,49.9009454 C89.5782163,49.3183892 90.5227266,47.4293687 89.9401703,45.6817 C89.3576141,43.9340313 87.4685936,42.989521 85.7209249,43.5720773 Z" id="Line-Copy-6" fill="#FFDD3F" fill-rule="nonzero"></path>
                            <path d="M101.094053,50.6939249 L96.3113812,52.2881489 C94.7451485,52.8102264 93.8986935,54.5031364 94.4207711,56.0693691 C94.9428487,57.6356018 96.6357587,58.4820568 98.2019914,57.9599792 L102.984663,56.3657553 C104.550896,55.8436778 105.397351,54.1507678 104.875273,52.5845351 C104.353196,51.0183024 102.660286,50.1718474 101.094053,50.6939249 Z" id="Line-Copy-8" fill="#3FB5FF" fill-rule="nonzero" transform="translate(99.648022, 54.326952) rotate(50.000000) translate(-99.648022, -54.326952) "></path>
                        </g>
                        <g id="Group-38" transform="translate(29.800000, 41.800000)">
                            <path d="M7.94000425,12 L84,12 L84,64.8 L7.94000425,64.8 C2.63165959,58.9190858 -0.0149872199,50.1190858 6.38316687e-05,38.4 C0.0151148833,26.6809142 2.66176169,17.8809142 7.94000425,12 Z" id="Rectangle-23" fill="#FFCE95"></path>
                            <path d="M84,28.8 L84,48 L0.680201846,48 C0.222341105,45.0535002 -0.0043715664,41.8535002 6.38316687e-05,38.4 C0.00449922974,34.9464998 0.23746856,31.7464998 0.698971824,28.8 L84,28.8 Z" id="Combined-Shape" fill="#F5BC79"></path>
                            <mask id="mask-3" fill="white">
                                <use xlink:href="#path-2"></use>
                            </mask>
                            <use id="Clip-2" fill="#FFFFFF" xlink:href="#path-2"></use>
                        </g>
                    </g>
                </g>
            </g>
        </g>
    </g>
</svg>